M48
; DRILL file KiCad 10.0.3 date 2026-06-07T16:15:20
; FORMAT={-:-/ absolute / metric / decimal}
; #@! TF.CreationDate,2026-06-07T16:15:20+02:00
; #@! TF.GenerationSoftware,Kicad,Pcbnew,10.0.3
; #@! TF.FileFunction,Plated,1,2,PTH
FMAT,2
METRIC
; #@! TA.AperFunction,Plated,PTH,ComponentDrill
T1C1.000
; #@! TA.AperFunction,Plated,PTH,ComponentDrill
T2C1.500
%
G90
G05
T1
X88.25Y-55.26
X88.25Y-57.8
X88.25Y-60.34
X88.25Y-62.88
X88.25Y-65.42
X88.25Y-67.96
X88.25Y-70.5
X103.5Y-55.26
X103.5Y-57.8
X103.5Y-60.34
X103.5Y-62.88
X103.5Y-65.42
X103.5Y-67.96
X103.5Y-70.5
T2
X92.235Y-59.04
X92.235Y-78.095
X92.235Y-97.04
X98.585Y-56.5
X98.585Y-75.555
X98.585Y-94.5
M30
