%TF.GenerationSoftware,KiCad,Pcbnew,10.0.3*%
%TF.CreationDate,2026-06-07T16:12:33+02:00*%
%TF.ProjectId,stardance,73746172-6461-46e6-9365-2e6b69636164,rev?*%
%TF.SameCoordinates,Original*%
%TF.FileFunction,Legend,Bot*%
%TF.FilePolarity,Positive*%
%FSLAX46Y46*%
G04 Gerber Fmt 4.6, Leading zero omitted, Abs format (unit mm)*
G04 Created by KiCad (PCBNEW 10.0.3) date 2026-06-07 16:12:33*
%MOMM*%
%LPD*%
G01*
G04 APERTURE LIST*
%ADD10C,0.000000*%
%ADD11C,0.101600*%
%ADD12C,0.150000*%
%ADD13C,0.127000*%
%ADD14C,0.120000*%
%ADD15C,0.254000*%
%ADD16C,0.025400*%
G04 APERTURE END LIST*
D10*
G36*
X98265982Y-88914755D02*
G01*
X98267740Y-88914952D01*
X98269284Y-88915156D01*
X98270632Y-88915385D01*
X98271247Y-88915513D01*
X98271821Y-88915650D01*
X98272367Y-88915798D01*
X98272883Y-88915961D01*
X98273371Y-88916141D01*
X98273837Y-88916339D01*
X98274288Y-88916552D01*
X98274716Y-88916787D01*
X98275139Y-88917042D01*
X98275552Y-88917318D01*
X98275961Y-88917627D01*
X98276367Y-88917956D01*
X98276776Y-88918316D01*
X98277190Y-88918701D01*
X98278057Y-88919578D01*
X98278991Y-88920588D01*
X98281174Y-88923074D01*
X98287725Y-88932751D01*
X98294343Y-88942382D01*
X98300438Y-88951177D01*
X98306508Y-88959990D01*
X98320221Y-88980009D01*
X98327474Y-88990586D01*
X98362026Y-89040900D01*
X98375246Y-89060134D01*
X98401221Y-89097891D01*
X98465741Y-89192052D01*
X98529930Y-89286445D01*
X98526332Y-89289996D01*
X98524763Y-89291453D01*
X98523280Y-89292728D01*
X98521809Y-89293844D01*
X98520305Y-89294823D01*
X98518708Y-89295688D01*
X98516960Y-89296464D01*
X98515003Y-89297173D01*
X98512775Y-89297836D01*
X98510224Y-89298479D01*
X98507291Y-89299124D01*
X98500045Y-89300512D01*
X98490580Y-89302186D01*
X98478188Y-89304225D01*
X98452075Y-89308674D01*
X98411016Y-89315553D01*
X98374648Y-89321692D01*
X98356468Y-89324574D01*
X98338277Y-89327249D01*
X98320053Y-89329655D01*
X98301779Y-89331724D01*
X98283432Y-89333400D01*
X98265009Y-89334611D01*
X98258182Y-89298562D01*
X98252187Y-89262183D01*
X98247025Y-89225548D01*
X98242707Y-89188745D01*
X98239244Y-89151846D01*
X98236645Y-89114939D01*
X98234917Y-89078104D01*
X98234070Y-89041422D01*
X98233998Y-89022721D01*
X98234020Y-89008414D01*
X98234403Y-88994640D01*
X98234760Y-88987912D01*
X98235249Y-88981267D01*
X98235889Y-88974685D01*
X98236686Y-88968154D01*
X98237660Y-88961650D01*
X98238823Y-88955160D01*
X98240187Y-88948669D01*
X98241770Y-88942154D01*
X98243583Y-88935604D01*
X98245641Y-88928997D01*
X98247963Y-88922317D01*
X98250556Y-88915547D01*
X98261696Y-88914341D01*
X98265982Y-88914755D01*
G37*
G36*
X92990064Y-89084970D02*
G01*
X92998484Y-89085362D01*
X93006904Y-89086092D01*
X93015286Y-89087134D01*
X93023583Y-89088453D01*
X93031746Y-89090008D01*
X93039736Y-89091774D01*
X93047499Y-89093715D01*
X93054993Y-89095795D01*
X93062173Y-89097986D01*
X93077280Y-89103403D01*
X93107516Y-89114125D01*
X93137689Y-89125015D01*
X93149234Y-89129312D01*
X93153983Y-89131138D01*
X93158425Y-89132983D01*
X93162635Y-89134885D01*
X93166708Y-89136889D01*
X93170723Y-89139035D01*
X93174765Y-89141368D01*
X93178913Y-89143926D01*
X93183252Y-89146756D01*
X93162316Y-89197652D01*
X93140777Y-89248285D01*
X93118800Y-89298722D01*
X93096549Y-89349063D01*
X93091763Y-89349055D01*
X93089797Y-89349040D01*
X93088065Y-89349004D01*
X93086545Y-89348952D01*
X93085191Y-89348873D01*
X93083981Y-89348756D01*
X93082871Y-89348611D01*
X93081837Y-89348417D01*
X93080845Y-89348181D01*
X93079857Y-89347885D01*
X93078838Y-89347538D01*
X93077766Y-89347125D01*
X93076595Y-89346641D01*
X93073841Y-89345448D01*
X93062833Y-89339428D01*
X93046681Y-89330976D01*
X93030848Y-89322392D01*
X93015349Y-89313532D01*
X93007737Y-89308951D01*
X93000212Y-89304247D01*
X92992791Y-89299407D01*
X92985466Y-89294404D01*
X92978245Y-89289230D01*
X92971130Y-89283860D01*
X92964123Y-89278279D01*
X92957227Y-89272464D01*
X92950447Y-89266409D01*
X92943784Y-89260082D01*
X92938312Y-89253892D01*
X92933240Y-89247841D01*
X92928558Y-89241893D01*
X92924269Y-89236002D01*
X92920371Y-89230133D01*
X92916854Y-89224241D01*
X92913715Y-89218288D01*
X92910955Y-89212232D01*
X92908568Y-89206035D01*
X92906543Y-89199654D01*
X92904888Y-89193051D01*
X92903588Y-89186179D01*
X92902648Y-89179005D01*
X92902058Y-89171485D01*
X92901817Y-89163575D01*
X92901923Y-89155241D01*
X92902697Y-89150475D01*
X92903609Y-89145879D01*
X92904665Y-89141445D01*
X92905871Y-89137162D01*
X92907233Y-89133017D01*
X92908766Y-89129014D01*
X92910470Y-89125136D01*
X92912364Y-89121382D01*
X92914448Y-89117732D01*
X92916736Y-89114189D01*
X92919233Y-89110737D01*
X92921946Y-89107369D01*
X92924886Y-89104082D01*
X92928062Y-89100864D01*
X92931480Y-89097706D01*
X92935153Y-89094596D01*
X92942245Y-89091665D01*
X92949665Y-89089305D01*
X92957371Y-89087488D01*
X92965303Y-89086179D01*
X92973436Y-89085346D01*
X92981699Y-89084955D01*
X92990064Y-89084970D01*
G37*
G36*
X92893897Y-89440300D02*
G01*
X92911914Y-89442613D01*
X92929929Y-89446221D01*
X92947804Y-89451002D01*
X92965412Y-89456853D01*
X92982619Y-89463657D01*
X92999289Y-89471299D01*
X93015300Y-89479667D01*
X93030511Y-89488655D01*
X93044796Y-89498140D01*
X93058014Y-89508015D01*
X93059599Y-89512814D01*
X93060235Y-89514806D01*
X93060766Y-89516583D01*
X93061198Y-89518182D01*
X93061543Y-89519654D01*
X93061792Y-89521028D01*
X93061960Y-89522350D01*
X93062044Y-89523667D01*
X93062052Y-89525007D01*
X93061985Y-89526422D01*
X93061842Y-89527951D01*
X93061635Y-89529629D01*
X93061370Y-89531504D01*
X93060666Y-89535994D01*
X93056775Y-89552440D01*
X93053489Y-89566419D01*
X93050157Y-89580382D01*
X93045443Y-89600042D01*
X93036067Y-89638647D01*
X93026255Y-89677125D01*
X93015930Y-89715470D01*
X93005030Y-89753675D01*
X92998638Y-89753487D01*
X92992067Y-89752942D01*
X92985343Y-89752051D01*
X92978475Y-89750828D01*
X92964374Y-89747457D01*
X92949877Y-89742966D01*
X92935109Y-89737474D01*
X92920182Y-89731111D01*
X92905216Y-89724003D01*
X92890333Y-89716283D01*
X92875643Y-89708078D01*
X92861270Y-89699511D01*
X92847333Y-89690711D01*
X92833944Y-89681806D01*
X92821228Y-89672926D01*
X92809298Y-89664198D01*
X92798274Y-89655748D01*
X92788275Y-89647703D01*
X92783184Y-89641728D01*
X92778435Y-89635833D01*
X92774019Y-89629992D01*
X92769941Y-89624168D01*
X92766203Y-89618337D01*
X92762804Y-89612467D01*
X92759755Y-89606531D01*
X92757049Y-89600490D01*
X92754695Y-89594323D01*
X92752691Y-89587994D01*
X92751047Y-89581478D01*
X92749757Y-89574737D01*
X92748826Y-89567746D01*
X92748255Y-89560476D01*
X92748049Y-89552895D01*
X92748216Y-89544971D01*
X92749094Y-89538603D01*
X92750211Y-89532369D01*
X92751569Y-89526279D01*
X92753173Y-89520326D01*
X92755023Y-89514511D01*
X92757133Y-89508839D01*
X92759497Y-89503302D01*
X92762123Y-89497912D01*
X92765014Y-89492659D01*
X92768180Y-89487548D01*
X92771620Y-89482576D01*
X92775338Y-89477747D01*
X92779342Y-89473061D01*
X92783628Y-89468513D01*
X92788213Y-89464107D01*
X92793091Y-89459849D01*
X92800621Y-89455693D01*
X92808364Y-89452047D01*
X92816304Y-89448892D01*
X92824420Y-89446213D01*
X92832708Y-89444000D01*
X92841140Y-89442236D01*
X92849701Y-89440907D01*
X92858377Y-89439999D01*
X92867151Y-89439499D01*
X92876005Y-89439390D01*
X92893897Y-89440300D01*
G37*
G36*
X101282427Y-89599851D02*
G01*
X101368367Y-89888849D01*
X101438840Y-90148700D01*
X101495656Y-90384321D01*
X101540650Y-90600611D01*
X101575630Y-90802483D01*
X101602425Y-90994844D01*
X101622861Y-91182603D01*
X101624143Y-91196016D01*
X101626573Y-91223518D01*
X101628445Y-91250882D01*
X101629823Y-91278167D01*
X101630793Y-91305429D01*
X101631770Y-91360135D01*
X101631968Y-91415480D01*
X101333324Y-91415480D01*
X101329270Y-91261270D01*
X101323287Y-91107311D01*
X101314999Y-90953605D01*
X101304036Y-90800167D01*
X101290032Y-90647011D01*
X101272611Y-90494142D01*
X101251401Y-90341579D01*
X101226026Y-90189324D01*
X101221285Y-90163440D01*
X101216736Y-90137538D01*
X101214637Y-90124564D01*
X101212711Y-90111561D01*
X101210997Y-90098518D01*
X101209536Y-90085434D01*
X101208092Y-90066768D01*
X101177994Y-90063436D01*
X101147916Y-90059904D01*
X100623383Y-90106673D01*
X100221423Y-90143976D01*
X99915980Y-90175531D01*
X99791307Y-90190314D01*
X99681000Y-90205059D01*
X99581794Y-90220223D01*
X99490434Y-90236278D01*
X99403661Y-90253684D01*
X99318227Y-90272907D01*
X99230865Y-90294411D01*
X99147189Y-90316341D01*
X99138328Y-90318664D01*
X98924674Y-90377269D01*
X98915279Y-90379861D01*
X98642465Y-90458112D01*
X98370602Y-90539620D01*
X98118348Y-90615588D01*
X97865618Y-90689977D01*
X97611913Y-90760856D01*
X97484537Y-90794378D01*
X97356729Y-90826296D01*
X97317486Y-90835843D01*
X96835747Y-90876329D01*
X96404765Y-90908812D01*
X96021202Y-90933764D01*
X95681710Y-90951659D01*
X95382947Y-90962975D01*
X95121575Y-90968175D01*
X94894238Y-90967743D01*
X94697605Y-90962153D01*
X94528326Y-90951873D01*
X94383057Y-90937386D01*
X94258460Y-90919158D01*
X94151192Y-90897661D01*
X94057903Y-90873380D01*
X93975246Y-90846778D01*
X93899890Y-90818340D01*
X93828483Y-90788527D01*
X93819077Y-90784477D01*
X93738539Y-90749140D01*
X93658683Y-90712557D01*
X93579462Y-90674623D01*
X93500830Y-90635235D01*
X93472840Y-90620887D01*
X93397404Y-90581834D01*
X93322393Y-90541997D01*
X93247824Y-90501359D01*
X93173707Y-90459923D01*
X93100046Y-90417681D01*
X93026849Y-90374625D01*
X92954127Y-90330754D01*
X92881880Y-90286055D01*
X92858586Y-90271497D01*
X92847839Y-90264728D01*
X94025464Y-90264728D01*
X94025498Y-90267129D01*
X94025624Y-90269499D01*
X94025823Y-90271841D01*
X94026115Y-90274170D01*
X94026473Y-90276489D01*
X94026913Y-90278806D01*
X94027424Y-90281131D01*
X94028010Y-90283474D01*
X94028661Y-90285840D01*
X94029378Y-90288235D01*
X94031012Y-90293159D01*
X94034148Y-90299066D01*
X94037481Y-90304646D01*
X94041014Y-90309920D01*
X94044745Y-90314909D01*
X94048668Y-90319623D01*
X94052788Y-90324077D01*
X94057103Y-90328284D01*
X94061604Y-90332270D01*
X94066305Y-90336045D01*
X94071191Y-90339619D01*
X94076273Y-90343017D01*
X94081536Y-90346251D01*
X94086985Y-90349332D01*
X94092621Y-90352282D01*
X94098445Y-90355116D01*
X94104450Y-90357848D01*
X94163531Y-90380115D01*
X94232282Y-90404228D01*
X94307558Y-90427765D01*
X94346656Y-90438558D01*
X94386210Y-90448306D01*
X94425821Y-90456697D01*
X94465093Y-90463431D01*
X94503641Y-90468213D01*
X94541063Y-90470721D01*
X94576966Y-90470673D01*
X94610959Y-90467756D01*
X94627119Y-90465128D01*
X94642659Y-90461673D01*
X94657516Y-90457347D01*
X94671651Y-90452113D01*
X94676999Y-90448555D01*
X94679435Y-90446859D01*
X94681721Y-90445182D01*
X94683870Y-90443510D01*
X94685884Y-90441819D01*
X94687775Y-90440085D01*
X94689554Y-90438288D01*
X94691229Y-90436403D01*
X94692802Y-90434412D01*
X94694294Y-90432290D01*
X94695702Y-90430012D01*
X94697043Y-90427563D01*
X94698316Y-90424916D01*
X94699541Y-90422052D01*
X94700719Y-90418945D01*
X94700736Y-90418839D01*
X94905904Y-90418839D01*
X94906121Y-90427925D01*
X94906675Y-90436697D01*
X94907581Y-90445175D01*
X94908850Y-90453391D01*
X94910496Y-90461366D01*
X94912538Y-90469133D01*
X94914990Y-90476718D01*
X94917861Y-90484145D01*
X94921168Y-90491443D01*
X94924933Y-90498636D01*
X94929159Y-90505756D01*
X94933871Y-90512823D01*
X94939076Y-90519868D01*
X94944789Y-90526921D01*
X94951028Y-90534002D01*
X94962968Y-90544619D01*
X94975564Y-90554324D01*
X94988764Y-90563150D01*
X95002501Y-90571126D01*
X95016722Y-90578290D01*
X95031370Y-90584670D01*
X95046388Y-90590300D01*
X95061716Y-90595212D01*
X95077296Y-90599441D01*
X95093067Y-90603012D01*
X95108980Y-90605969D01*
X95124971Y-90608335D01*
X95140978Y-90610148D01*
X95156949Y-90611434D01*
X95172831Y-90612236D01*
X95188560Y-90612578D01*
X95205492Y-90611821D01*
X95222128Y-90610304D01*
X95238460Y-90608026D01*
X95254487Y-90604994D01*
X95270206Y-90601204D01*
X95285614Y-90596667D01*
X95300704Y-90591383D01*
X95315476Y-90585357D01*
X95329932Y-90578592D01*
X95344060Y-90571093D01*
X95357866Y-90562862D01*
X95371337Y-90553899D01*
X95384480Y-90544220D01*
X95397284Y-90533814D01*
X95409749Y-90522694D01*
X95421874Y-90510859D01*
X95444524Y-90484100D01*
X95464940Y-90455711D01*
X95483227Y-90425862D01*
X95499486Y-90394703D01*
X95513814Y-90362406D01*
X95526318Y-90329123D01*
X95537094Y-90295024D01*
X95546242Y-90260270D01*
X95553868Y-90225021D01*
X95560069Y-90189435D01*
X95564946Y-90153683D01*
X95568599Y-90117918D01*
X95571131Y-90082312D01*
X95572639Y-90047013D01*
X95573233Y-90012195D01*
X95573003Y-89978015D01*
X95572400Y-89960798D01*
X95570294Y-89911170D01*
X95566468Y-89860664D01*
X95563751Y-89835261D01*
X95560413Y-89809858D01*
X95556386Y-89784525D01*
X95551609Y-89759337D01*
X95546028Y-89734365D01*
X95539570Y-89709685D01*
X95532173Y-89685360D01*
X95523768Y-89661472D01*
X95514304Y-89638096D01*
X95503706Y-89615295D01*
X95491914Y-89593148D01*
X95478869Y-89571725D01*
X95471245Y-89561001D01*
X95464475Y-89551613D01*
X95461046Y-89546980D01*
X95457576Y-89542380D01*
X95454063Y-89537816D01*
X95450504Y-89533282D01*
X95446887Y-89528775D01*
X95443212Y-89524294D01*
X95431317Y-89511993D01*
X95418818Y-89500401D01*
X95405760Y-89489537D01*
X95392172Y-89479438D01*
X95378091Y-89470123D01*
X95363558Y-89461625D01*
X95348602Y-89453972D01*
X95333270Y-89447185D01*
X95317589Y-89441304D01*
X95301600Y-89436346D01*
X95285338Y-89432346D01*
X95268837Y-89429327D01*
X95252137Y-89427317D01*
X95235274Y-89426348D01*
X95218286Y-89426446D01*
X95201203Y-89427636D01*
X95189105Y-89430795D01*
X95177329Y-89434521D01*
X95165871Y-89438800D01*
X95154725Y-89443602D01*
X95143891Y-89448916D01*
X95133359Y-89454723D01*
X95123124Y-89461001D01*
X95113188Y-89467733D01*
X95103541Y-89474899D01*
X95094182Y-89482478D01*
X95085101Y-89490456D01*
X95076302Y-89498808D01*
X95067770Y-89507523D01*
X95059511Y-89516575D01*
X95051512Y-89525946D01*
X95043772Y-89535618D01*
X95038749Y-89543249D01*
X95034106Y-89551022D01*
X95030439Y-89557830D01*
X95029843Y-89558931D01*
X95025968Y-89566979D01*
X95022487Y-89575146D01*
X95019406Y-89583432D01*
X95016730Y-89591829D01*
X95014460Y-89600328D01*
X95012613Y-89608923D01*
X95011185Y-89617607D01*
X95010188Y-89626377D01*
X95009628Y-89635217D01*
X95009506Y-89644123D01*
X95009830Y-89653096D01*
X95010607Y-89662118D01*
X95011841Y-89671188D01*
X95013311Y-89674460D01*
X95014732Y-89677486D01*
X95016138Y-89680289D01*
X95017540Y-89682890D01*
X95018967Y-89685304D01*
X95020439Y-89687554D01*
X95021981Y-89689663D01*
X95023608Y-89691648D01*
X95025350Y-89693532D01*
X95027227Y-89695329D01*
X95029262Y-89697066D01*
X95031474Y-89698758D01*
X95033884Y-89700430D01*
X95036519Y-89702097D01*
X95039399Y-89703784D01*
X95042548Y-89705504D01*
X95047180Y-89706029D01*
X95051732Y-89706441D01*
X95056216Y-89706731D01*
X95060637Y-89706887D01*
X95065001Y-89706898D01*
X95069311Y-89706757D01*
X95073574Y-89706453D01*
X95077800Y-89705972D01*
X95081993Y-89705309D01*
X95086158Y-89704449D01*
X95090305Y-89703383D01*
X95094435Y-89702096D01*
X95098560Y-89700584D01*
X95102679Y-89698835D01*
X95106806Y-89696832D01*
X95110945Y-89694573D01*
X95122930Y-89687143D01*
X95148519Y-89671790D01*
X95151902Y-89669609D01*
X95155279Y-89667483D01*
X95158660Y-89665412D01*
X95162060Y-89663387D01*
X95165492Y-89661422D01*
X95168964Y-89659505D01*
X95172494Y-89657644D01*
X95176088Y-89655832D01*
X95180965Y-89654459D01*
X95186007Y-89653240D01*
X95191182Y-89652182D01*
X95196472Y-89651293D01*
X95201846Y-89650582D01*
X95207285Y-89650056D01*
X95212768Y-89649723D01*
X95218267Y-89649593D01*
X95223761Y-89649667D01*
X95229222Y-89649962D01*
X95234633Y-89650476D01*
X95239965Y-89651224D01*
X95245195Y-89652214D01*
X95250296Y-89653452D01*
X95255256Y-89654941D01*
X95260040Y-89656700D01*
X95268941Y-89662154D01*
X95274869Y-89665910D01*
X95280555Y-89669781D01*
X95286004Y-89673779D01*
X95291236Y-89677906D01*
X95296257Y-89682163D01*
X95301081Y-89686561D01*
X95305721Y-89691100D01*
X95310187Y-89695789D01*
X95314495Y-89700629D01*
X95318655Y-89705629D01*
X95322677Y-89710795D01*
X95326578Y-89716123D01*
X95330367Y-89721629D01*
X95334057Y-89727307D01*
X95337660Y-89733172D01*
X95341193Y-89739224D01*
X95351549Y-89762119D01*
X95360337Y-89785778D01*
X95367620Y-89810106D01*
X95373460Y-89835001D01*
X95377923Y-89860363D01*
X95381075Y-89886091D01*
X95382976Y-89912085D01*
X95383693Y-89938244D01*
X95383292Y-89964467D01*
X95381829Y-89990660D01*
X95379372Y-90016715D01*
X95375989Y-90042536D01*
X95371735Y-90068023D01*
X95366687Y-90093074D01*
X95360901Y-90117591D01*
X95354438Y-90141469D01*
X95349263Y-90157767D01*
X95343657Y-90174176D01*
X95337588Y-90190611D01*
X95331028Y-90206981D01*
X95323936Y-90223209D01*
X95316282Y-90239201D01*
X95308030Y-90254875D01*
X95299147Y-90270147D01*
X95289592Y-90284926D01*
X95279342Y-90299138D01*
X95268355Y-90312681D01*
X95256601Y-90325482D01*
X95250424Y-90331576D01*
X95244041Y-90337453D01*
X95237449Y-90343102D01*
X95230644Y-90348508D01*
X95223623Y-90353664D01*
X95216375Y-90358556D01*
X95208905Y-90363180D01*
X95201203Y-90367519D01*
X95194400Y-90370035D01*
X95187391Y-90372213D01*
X95180200Y-90374049D01*
X95172858Y-90375553D01*
X95165397Y-90376730D01*
X95157840Y-90377579D01*
X95150220Y-90378100D01*
X95142565Y-90378309D01*
X95134903Y-90378209D01*
X95127263Y-90377790D01*
X95119671Y-90377072D01*
X95112161Y-90376051D01*
X95104759Y-90374730D01*
X95097491Y-90373117D01*
X95090396Y-90371214D01*
X95083492Y-90369027D01*
X95077472Y-90366681D01*
X95071446Y-90364433D01*
X95065404Y-90362272D01*
X95059339Y-90360198D01*
X95053248Y-90358206D01*
X95047122Y-90356290D01*
X95040949Y-90354455D01*
X95034731Y-90352688D01*
X95025087Y-90350059D01*
X95016259Y-90347662D01*
X95007399Y-90345406D01*
X94998499Y-90343295D01*
X94989564Y-90341327D01*
X94980440Y-90340991D01*
X94976155Y-90340933D01*
X94972028Y-90340972D01*
X94968031Y-90341125D01*
X94964153Y-90341414D01*
X94960366Y-90341856D01*
X94956650Y-90342470D01*
X94952981Y-90343277D01*
X94949346Y-90344284D01*
X94945719Y-90345526D01*
X94942073Y-90347010D01*
X94938398Y-90348757D01*
X94934663Y-90350793D01*
X94930852Y-90353125D01*
X94926946Y-90355779D01*
X94924494Y-90358853D01*
X94922240Y-90361933D01*
X94920163Y-90365019D01*
X94918265Y-90368122D01*
X94916535Y-90371249D01*
X94914962Y-90374409D01*
X94913534Y-90377608D01*
X94912254Y-90380853D01*
X94911100Y-90384150D01*
X94910072Y-90387511D01*
X94909158Y-90390944D01*
X94908350Y-90394455D01*
X94907637Y-90398045D01*
X94907020Y-90401729D01*
X94906475Y-90405511D01*
X94906004Y-90409403D01*
X94905904Y-90418839D01*
X94700736Y-90418839D01*
X94703527Y-90401712D01*
X94709596Y-90358707D01*
X94713463Y-90329246D01*
X94716794Y-90299720D01*
X94721248Y-90256513D01*
X94730574Y-90170031D01*
X94740655Y-90083680D01*
X94751628Y-89997439D01*
X94763641Y-89911295D01*
X94770712Y-89862850D01*
X94772102Y-89853313D01*
X94774836Y-89834545D01*
X94777510Y-89816202D01*
X94785358Y-89768571D01*
X94794486Y-89717734D01*
X94803254Y-89664876D01*
X94806989Y-89638060D01*
X94810012Y-89611184D01*
X94812121Y-89584390D01*
X94813109Y-89557830D01*
X94812770Y-89531654D01*
X94810902Y-89506007D01*
X94807298Y-89481037D01*
X94801743Y-89456896D01*
X94798172Y-89445184D01*
X94794039Y-89433729D01*
X94789472Y-89422914D01*
X96129948Y-89422914D01*
X96143625Y-89474353D01*
X96149587Y-89495638D01*
X96155261Y-89514508D01*
X96160878Y-89531372D01*
X96166652Y-89546638D01*
X96172810Y-89560712D01*
X96179570Y-89573998D01*
X96187167Y-89586908D01*
X96195816Y-89599849D01*
X96205740Y-89613225D01*
X96217163Y-89627448D01*
X96230309Y-89642918D01*
X96245400Y-89660050D01*
X96282317Y-89700913D01*
X96293618Y-89713743D01*
X96299235Y-89720186D01*
X96304823Y-89726657D01*
X96309734Y-89732332D01*
X96314679Y-89737948D01*
X96319669Y-89743508D01*
X96324707Y-89749016D01*
X96329801Y-89754473D01*
X96334963Y-89759879D01*
X96340193Y-89765229D01*
X96345502Y-89770537D01*
X96351949Y-89776939D01*
X96358289Y-89783402D01*
X96361414Y-89786676D01*
X96364512Y-89789976D01*
X96367578Y-89793321D01*
X96370618Y-89796708D01*
X96377455Y-89804572D01*
X96384352Y-89812342D01*
X96391323Y-89820028D01*
X96398367Y-89827630D01*
X96405486Y-89835161D01*
X96412690Y-89842625D01*
X96419985Y-89850029D01*
X96427366Y-89857389D01*
X96434612Y-89864463D01*
X96424976Y-89878913D01*
X96408387Y-89900562D01*
X96392917Y-89923827D01*
X96378521Y-89948519D01*
X96365150Y-89974455D01*
X96352750Y-90001450D01*
X96348325Y-90012195D01*
X96341273Y-90029327D01*
X96330668Y-90057886D01*
X96320888Y-90086959D01*
X96311876Y-90116361D01*
X96303591Y-90145898D01*
X96288988Y-90204669D01*
X96276670Y-90261797D01*
X96266243Y-90315815D01*
X96263615Y-90330793D01*
X96261620Y-90342742D01*
X96259989Y-90354738D01*
X96258737Y-90366764D01*
X96257898Y-90378806D01*
X96257487Y-90390843D01*
X96257531Y-90402856D01*
X96258052Y-90414833D01*
X96259070Y-90426750D01*
X96260611Y-90438594D01*
X96262690Y-90450347D01*
X96265343Y-90462000D01*
X96268580Y-90473518D01*
X96272434Y-90484902D01*
X96276920Y-90496115D01*
X96282063Y-90507160D01*
X96287888Y-90518010D01*
X96291139Y-90522453D01*
X96294430Y-90526755D01*
X96297773Y-90530912D01*
X96301181Y-90534914D01*
X96304674Y-90538751D01*
X96308265Y-90542416D01*
X96311963Y-90545896D01*
X96315791Y-90549191D01*
X96319759Y-90552292D01*
X96323883Y-90555180D01*
X96328176Y-90557858D01*
X96332657Y-90560310D01*
X96337336Y-90562531D01*
X96342234Y-90564509D01*
X96347357Y-90566246D01*
X96352726Y-90567718D01*
X96361076Y-90568389D01*
X96369137Y-90568814D01*
X96376944Y-90568967D01*
X96384519Y-90568850D01*
X96391898Y-90568443D01*
X96399106Y-90567732D01*
X96406169Y-90566712D01*
X96413121Y-90565366D01*
X96419986Y-90563681D01*
X96426795Y-90561651D01*
X96433576Y-90559252D01*
X96440361Y-90556487D01*
X96447171Y-90553329D01*
X96454039Y-90549772D01*
X96460995Y-90545805D01*
X96468065Y-90541416D01*
X96476543Y-90534669D01*
X96484326Y-90527658D01*
X96491447Y-90520397D01*
X96497941Y-90512877D01*
X96503843Y-90505105D01*
X96509188Y-90497078D01*
X96514009Y-90488803D01*
X96518342Y-90480276D01*
X96522222Y-90471506D01*
X96525684Y-90462483D01*
X96528755Y-90453217D01*
X96531477Y-90443706D01*
X96533884Y-90433957D01*
X96536013Y-90423966D01*
X96537888Y-90413731D01*
X96539552Y-90403266D01*
X96543044Y-90378995D01*
X96546705Y-90354753D01*
X96548306Y-90344466D01*
X96552878Y-90316538D01*
X96557862Y-90288713D01*
X96563204Y-90260948D01*
X96568849Y-90233220D01*
X96570913Y-90223354D01*
X96583339Y-90164258D01*
X96600311Y-90083850D01*
X96604331Y-90064698D01*
X96609160Y-90042019D01*
X96613746Y-90019332D01*
X96615845Y-90007955D01*
X96617762Y-89996547D01*
X96619456Y-89985088D01*
X96620891Y-89973574D01*
X96622470Y-89955983D01*
X96625196Y-89956855D01*
X96627896Y-89957646D01*
X96630570Y-89958358D01*
X96633223Y-89958998D01*
X96635867Y-89959574D01*
X96638502Y-89960088D01*
X96643767Y-89960947D01*
X96649064Y-89961623D01*
X96654439Y-89962153D01*
X96659931Y-89962575D01*
X96665584Y-89962936D01*
X96676356Y-89963509D01*
X96697638Y-89964730D01*
X96713986Y-89965616D01*
X96713986Y-89980067D01*
X96722605Y-90008331D01*
X96732030Y-90036862D01*
X96742317Y-90065507D01*
X96753519Y-90094110D01*
X96765673Y-90122518D01*
X96778834Y-90150587D01*
X96793044Y-90178150D01*
X96808351Y-90205063D01*
X96824808Y-90231176D01*
X96842459Y-90256328D01*
X96861349Y-90280372D01*
X96881529Y-90303151D01*
X96892115Y-90314025D01*
X96903041Y-90324524D01*
X96914311Y-90334624D01*
X96925939Y-90344318D01*
X96937920Y-90353581D01*
X96950268Y-90362398D01*
X96962983Y-90370745D01*
X96976074Y-90378602D01*
X96989047Y-90384883D01*
X97002211Y-90390917D01*
X97008866Y-90393722D01*
X97015570Y-90396326D01*
X97022318Y-90398677D01*
X97029115Y-90400724D01*
X97035961Y-90402429D01*
X97042851Y-90403735D01*
X97049787Y-90404596D01*
X97056773Y-90404969D01*
X97063806Y-90404806D01*
X97067340Y-90404505D01*
X97070887Y-90404054D01*
X97074445Y-90403441D01*
X97078011Y-90402669D01*
X97081593Y-90401721D01*
X97085186Y-90400596D01*
X97089447Y-90398675D01*
X97093491Y-90396711D01*
X97097328Y-90394699D01*
X97100968Y-90392619D01*
X97104417Y-90390450D01*
X97107692Y-90388173D01*
X97110802Y-90385778D01*
X97113757Y-90383240D01*
X97116565Y-90380546D01*
X97119241Y-90377676D01*
X97121791Y-90374612D01*
X97124229Y-90371336D01*
X97126563Y-90367832D01*
X97128806Y-90364085D01*
X97130965Y-90360072D01*
X97133051Y-90355779D01*
X97133530Y-90327906D01*
X97133562Y-90316341D01*
X97133375Y-90306044D01*
X97132914Y-90296781D01*
X97132116Y-90288321D01*
X97130927Y-90280432D01*
X97129281Y-90272875D01*
X97127125Y-90265422D01*
X97124395Y-90257839D01*
X97121036Y-90249891D01*
X97116986Y-90241346D01*
X97112189Y-90231968D01*
X97106582Y-90221529D01*
X97092710Y-90196523D01*
X97068761Y-90152804D01*
X97045571Y-90108741D01*
X97022999Y-90064351D01*
X97000914Y-90019670D01*
X96993365Y-90004151D01*
X96975598Y-89966462D01*
X96958932Y-89928238D01*
X96943425Y-89889515D01*
X96929122Y-89850324D01*
X96916087Y-89810697D01*
X96904364Y-89770670D01*
X96894015Y-89730274D01*
X96885092Y-89689539D01*
X96882578Y-89676605D01*
X96876471Y-89643125D01*
X96871392Y-89609597D01*
X96867187Y-89576011D01*
X96863735Y-89542364D01*
X96860892Y-89508648D01*
X96858523Y-89474857D01*
X96854656Y-89407031D01*
X96851455Y-89333640D01*
X96849093Y-89295884D01*
X96847406Y-89276982D01*
X96845256Y-89258140D01*
X96842559Y-89239436D01*
X96839223Y-89220929D01*
X96835152Y-89202692D01*
X96830265Y-89184791D01*
X96824464Y-89167289D01*
X96817663Y-89150253D01*
X96809770Y-89133756D01*
X96802641Y-89121272D01*
X97054321Y-89121272D01*
X97054501Y-89129374D01*
X97054900Y-89137228D01*
X97055558Y-89144854D01*
X97056505Y-89152277D01*
X97057781Y-89159519D01*
X97059418Y-89166594D01*
X97061451Y-89173533D01*
X97063920Y-89180356D01*
X97066856Y-89187084D01*
X97070295Y-89193738D01*
X97074272Y-89200345D01*
X97078817Y-89206922D01*
X97083978Y-89213494D01*
X97089776Y-89220081D01*
X97093096Y-89222964D01*
X97096411Y-89225652D01*
X97099727Y-89228144D01*
X97103057Y-89230441D01*
X97106414Y-89232540D01*
X97109808Y-89234444D01*
X97113253Y-89236152D01*
X97116757Y-89237668D01*
X97120335Y-89238984D01*
X97123997Y-89240106D01*
X97127759Y-89241035D01*
X97131630Y-89241773D01*
X97135615Y-89242311D01*
X97139738Y-89242658D01*
X97144005Y-89242810D01*
X97148427Y-89242773D01*
X97154687Y-89241587D01*
X97160832Y-89240124D01*
X97166852Y-89238392D01*
X97172748Y-89236402D01*
X97178521Y-89234155D01*
X97184173Y-89231661D01*
X97189703Y-89228924D01*
X97195105Y-89225952D01*
X97200379Y-89222755D01*
X97205529Y-89219338D01*
X97210555Y-89215705D01*
X97215448Y-89211869D01*
X97220223Y-89207835D01*
X97224868Y-89203606D01*
X97229386Y-89199191D01*
X97233775Y-89194603D01*
X97242561Y-89184181D01*
X97246924Y-89179183D01*
X97251367Y-89174329D01*
X97253633Y-89171955D01*
X97255942Y-89169620D01*
X97258308Y-89167322D01*
X97260733Y-89165060D01*
X97263232Y-89162839D01*
X97265810Y-89160649D01*
X97268475Y-89158499D01*
X97271235Y-89156387D01*
X97277153Y-89154717D01*
X97283113Y-89153267D01*
X97289113Y-89152036D01*
X97295143Y-89151034D01*
X97301195Y-89150266D01*
X97307264Y-89149729D01*
X97313345Y-89149432D01*
X97319421Y-89149380D01*
X97325498Y-89149574D01*
X97331557Y-89150021D01*
X97337603Y-89150722D01*
X97343617Y-89151681D01*
X97349598Y-89152904D01*
X97355542Y-89154397D01*
X97361435Y-89156157D01*
X97367270Y-89158192D01*
X97400579Y-89176013D01*
X97414388Y-89184217D01*
X97426671Y-89192553D01*
X97437695Y-89201479D01*
X97447740Y-89211450D01*
X97457075Y-89222915D01*
X97465980Y-89236338D01*
X97474730Y-89252168D01*
X97483593Y-89270858D01*
X97492850Y-89292870D01*
X97502774Y-89318650D01*
X97525708Y-89383348D01*
X97554601Y-89468591D01*
X97558437Y-89480018D01*
X97574904Y-89529924D01*
X97582665Y-89555098D01*
X97589893Y-89580429D01*
X97596430Y-89605930D01*
X97602103Y-89631605D01*
X97604568Y-89644512D01*
X97606755Y-89657466D01*
X97608647Y-89670473D01*
X97610225Y-89683525D01*
X97611122Y-89693765D01*
X97612195Y-89705326D01*
X97613228Y-89716891D01*
X97615311Y-89751890D01*
X97615909Y-89769776D01*
X97616104Y-89787821D01*
X97615808Y-89805947D01*
X97614948Y-89824086D01*
X97613435Y-89842158D01*
X97611186Y-89860094D01*
X97608122Y-89877816D01*
X97604160Y-89895251D01*
X97599218Y-89912328D01*
X97593215Y-89928970D01*
X97586069Y-89945100D01*
X97577692Y-89960648D01*
X97573017Y-89968179D01*
X97568007Y-89975538D01*
X97562650Y-89982715D01*
X97556931Y-89989699D01*
X97548962Y-89997040D01*
X97540732Y-90003680D01*
X97532268Y-90009645D01*
X97523574Y-90014980D01*
X97514664Y-90019719D01*
X97505545Y-90023896D01*
X97496229Y-90027544D01*
X97486735Y-90030708D01*
X97477064Y-90033413D01*
X97467233Y-90035703D01*
X97457253Y-90037612D01*
X97447138Y-90039174D01*
X97436888Y-90040431D01*
X97426527Y-90041404D01*
X97405505Y-90042686D01*
X97390010Y-90043325D01*
X97375114Y-90044189D01*
X97369241Y-90044474D01*
X97366620Y-90044655D01*
X97364166Y-90044884D01*
X97361864Y-90045176D01*
X97359683Y-90045547D01*
X97357598Y-90046008D01*
X97355581Y-90046574D01*
X97353610Y-90047267D01*
X97351664Y-90048095D01*
X97349711Y-90049076D01*
X97347728Y-90050229D01*
X97345685Y-90051560D01*
X97343566Y-90053095D01*
X97341338Y-90054842D01*
X97338974Y-90056816D01*
X97335406Y-90061150D01*
X97332085Y-90065457D01*
X97328996Y-90069752D01*
X97326147Y-90074058D01*
X97323526Y-90078383D01*
X97321135Y-90082751D01*
X97318968Y-90087168D01*
X97317029Y-90091660D01*
X97315306Y-90096236D01*
X97313802Y-90100922D01*
X97312512Y-90105721D01*
X97311434Y-90110660D01*
X97310563Y-90115749D01*
X97309896Y-90121008D01*
X97309434Y-90126452D01*
X97309169Y-90132099D01*
X97309712Y-90139863D01*
X97310641Y-90147302D01*
X97311943Y-90154445D01*
X97313615Y-90161309D01*
X97315648Y-90167918D01*
X97318029Y-90174300D01*
X97320756Y-90180474D01*
X97323818Y-90186465D01*
X97327212Y-90192297D01*
X97330919Y-90197986D01*
X97334940Y-90203563D01*
X97339266Y-90209051D01*
X97343887Y-90214468D01*
X97348794Y-90219839D01*
X97353982Y-90225191D01*
X97359441Y-90230539D01*
X97366840Y-90236650D01*
X97374457Y-90242589D01*
X97382278Y-90248319D01*
X97390296Y-90253811D01*
X97398504Y-90259028D01*
X97406896Y-90263941D01*
X97415460Y-90268517D01*
X97424189Y-90272717D01*
X97433072Y-90276516D01*
X97442099Y-90279879D01*
X97451270Y-90282768D01*
X97460566Y-90285158D01*
X97469983Y-90287009D01*
X97479508Y-90288291D01*
X97489146Y-90288969D01*
X97498873Y-90289016D01*
X97516499Y-90287503D01*
X97534303Y-90285331D01*
X97552212Y-90282490D01*
X97570151Y-90278960D01*
X97588050Y-90274733D01*
X97605829Y-90269791D01*
X97623422Y-90264117D01*
X97640749Y-90257698D01*
X97657740Y-90250518D01*
X97674318Y-90242565D01*
X97690406Y-90233825D01*
X97705935Y-90224278D01*
X97720833Y-90213911D01*
X97735024Y-90202710D01*
X97748436Y-90190658D01*
X97760987Y-90177744D01*
X97781848Y-90149690D01*
X97800396Y-90120562D01*
X97816727Y-90090450D01*
X97830948Y-90059455D01*
X97843176Y-90027664D01*
X97853511Y-89995183D01*
X97862060Y-89962102D01*
X97868938Y-89928519D01*
X97874241Y-89894530D01*
X97878086Y-89860225D01*
X97880575Y-89825709D01*
X97881814Y-89791070D01*
X97881922Y-89756411D01*
X97880990Y-89721819D01*
X97879134Y-89687398D01*
X97876462Y-89653237D01*
X97874844Y-89638074D01*
X97870255Y-89598521D01*
X97864208Y-89558168D01*
X97856706Y-89517211D01*
X97847740Y-89475856D01*
X97837315Y-89434309D01*
X97825428Y-89392770D01*
X97812070Y-89351441D01*
X97797247Y-89310532D01*
X97780954Y-89270244D01*
X97763189Y-89230780D01*
X97743945Y-89192342D01*
X97723231Y-89155134D01*
X97701036Y-89119366D01*
X97683228Y-89093697D01*
X98030298Y-89093697D01*
X98030654Y-89170591D01*
X98033007Y-89249795D01*
X98037573Y-89330342D01*
X98044564Y-89411265D01*
X98054192Y-89491603D01*
X98066671Y-89570383D01*
X98082210Y-89646647D01*
X98101024Y-89719422D01*
X98113096Y-89756411D01*
X98123324Y-89787741D01*
X98149322Y-89850643D01*
X98163775Y-89879759D01*
X98179231Y-89907160D01*
X98195717Y-89932720D01*
X98213263Y-89956323D01*
X98221653Y-89965616D01*
X98224638Y-89969011D01*
X98227627Y-89972365D01*
X98230644Y-89975678D01*
X98233694Y-89978949D01*
X98236778Y-89982184D01*
X98239914Y-89985382D01*
X98243105Y-89988544D01*
X98246358Y-89991677D01*
X98253762Y-89997823D01*
X98261314Y-90003789D01*
X98269017Y-90009542D01*
X98276873Y-90015047D01*
X98284881Y-90020267D01*
X98293046Y-90025174D01*
X98301368Y-90029728D01*
X98309845Y-90033896D01*
X98318485Y-90037648D01*
X98327283Y-90040946D01*
X98336248Y-90043763D01*
X98345371Y-90046055D01*
X98354665Y-90047793D01*
X98364124Y-90048943D01*
X98373749Y-90049474D01*
X98383545Y-90049347D01*
X98388361Y-90048490D01*
X98392996Y-90047489D01*
X98397453Y-90046343D01*
X98401749Y-90045038D01*
X98405896Y-90043574D01*
X98409904Y-90041946D01*
X98413789Y-90040145D01*
X98417561Y-90038165D01*
X98421226Y-90036006D01*
X98424799Y-90033656D01*
X98428301Y-90031115D01*
X98431730Y-90028375D01*
X98435112Y-90025422D01*
X98438448Y-90022263D01*
X98441747Y-90018887D01*
X98445036Y-90015288D01*
X98449008Y-90006583D01*
X98452358Y-89997980D01*
X98455110Y-89989458D01*
X98457284Y-89980994D01*
X98458904Y-89972585D01*
X98460014Y-89964203D01*
X98460622Y-89955834D01*
X98460763Y-89947459D01*
X98460467Y-89939063D01*
X98459749Y-89930628D01*
X98458641Y-89922134D01*
X98457175Y-89913568D01*
X98455367Y-89904913D01*
X98453251Y-89896145D01*
X98450853Y-89887252D01*
X98448196Y-89878218D01*
X98444131Y-89865365D01*
X98422908Y-89799065D01*
X98408208Y-89753764D01*
X98393169Y-89708566D01*
X98370933Y-89642599D01*
X98366159Y-89628436D01*
X98371885Y-89628389D01*
X98377544Y-89628253D01*
X98383155Y-89628027D01*
X98388743Y-89627710D01*
X98394323Y-89627312D01*
X98399919Y-89626827D01*
X98405540Y-89626264D01*
X98411216Y-89625623D01*
X98431976Y-89623131D01*
X98465807Y-89619107D01*
X98508274Y-89614287D01*
X98550722Y-89610173D01*
X98593234Y-89606838D01*
X98635905Y-89604355D01*
X98654212Y-89636714D01*
X98673268Y-89669177D01*
X98683189Y-89685275D01*
X98693422Y-89701189D01*
X98704022Y-89716853D01*
X98715024Y-89732200D01*
X98726475Y-89747153D01*
X98738424Y-89761653D01*
X98750902Y-89775624D01*
X98763961Y-89788999D01*
X98777648Y-89801710D01*
X98791994Y-89813689D01*
X98807058Y-89824865D01*
X98814872Y-89830129D01*
X98822874Y-89835166D01*
X98834072Y-89840483D01*
X98839676Y-89842929D01*
X98845295Y-89845205D01*
X98850929Y-89847283D01*
X98856582Y-89849138D01*
X98862263Y-89850744D01*
X98867975Y-89852081D01*
X98873720Y-89853118D01*
X98879504Y-89853837D01*
X98885328Y-89854207D01*
X98891206Y-89854208D01*
X98897134Y-89853816D01*
X98903121Y-89853001D01*
X98909167Y-89851741D01*
X98915279Y-89850009D01*
X98918928Y-89847747D01*
X98922445Y-89845431D01*
X98925828Y-89843049D01*
X98929083Y-89840597D01*
X98932207Y-89838069D01*
X98935200Y-89835455D01*
X98938075Y-89832743D01*
X98940814Y-89829930D01*
X98943429Y-89827005D01*
X98945924Y-89823966D01*
X98948290Y-89820794D01*
X98950541Y-89817487D01*
X98952668Y-89814039D01*
X98954672Y-89810435D01*
X98956559Y-89806676D01*
X98958328Y-89802747D01*
X98960421Y-89795246D01*
X98962077Y-89787746D01*
X98963303Y-89780250D01*
X98964124Y-89772755D01*
X98964546Y-89765277D01*
X98964581Y-89757815D01*
X98964245Y-89750373D01*
X98963553Y-89742957D01*
X98962510Y-89735568D01*
X98961137Y-89728214D01*
X98959445Y-89720893D01*
X98957446Y-89713619D01*
X98955152Y-89706388D01*
X98952582Y-89699210D01*
X98949739Y-89692084D01*
X98946644Y-89685014D01*
X98937856Y-89669080D01*
X98911999Y-89622615D01*
X98885775Y-89576356D01*
X98870940Y-89550111D01*
X98856263Y-89523786D01*
X98841743Y-89497372D01*
X98827401Y-89470852D01*
X98794909Y-89410507D01*
X98778418Y-89380473D01*
X98761649Y-89350584D01*
X98740870Y-89313824D01*
X98720355Y-89276933D01*
X98700083Y-89239907D01*
X98680034Y-89202743D01*
X98660247Y-89165892D01*
X98640271Y-89129144D01*
X98621398Y-89094573D01*
X98602726Y-89059910D01*
X98584278Y-89025128D01*
X98566059Y-88990208D01*
X98551193Y-88961614D01*
X98536170Y-88933115D01*
X98520966Y-88904710D01*
X98505547Y-88876410D01*
X98494442Y-88856171D01*
X98483457Y-88835873D01*
X98472628Y-88815492D01*
X98462006Y-88794994D01*
X98442811Y-88757387D01*
X98433004Y-88738748D01*
X98422857Y-88720337D01*
X98412213Y-88702229D01*
X98406657Y-88693316D01*
X98400924Y-88684518D01*
X98394986Y-88675835D01*
X98388837Y-88667286D01*
X98382442Y-88658879D01*
X98375793Y-88650620D01*
X98365779Y-88640379D01*
X98355615Y-88630714D01*
X98345290Y-88621640D01*
X98334786Y-88613167D01*
X98324075Y-88605308D01*
X98313136Y-88598064D01*
X98301950Y-88591453D01*
X98290501Y-88585482D01*
X98278766Y-88580165D01*
X98266713Y-88575508D01*
X98254339Y-88571516D01*
X98241613Y-88568211D01*
X98228513Y-88565596D01*
X98215027Y-88563681D01*
X98214517Y-88563637D01*
X98875641Y-88563637D01*
X98875967Y-88570322D01*
X98876636Y-88577023D01*
X98877649Y-88583744D01*
X98879032Y-88590483D01*
X98880789Y-88597243D01*
X98883178Y-88605526D01*
X98885396Y-88613822D01*
X98887463Y-88622152D01*
X98889396Y-88630566D01*
X98906211Y-88707731D01*
X98924426Y-88784494D01*
X98943873Y-88860897D01*
X98964404Y-88937001D01*
X99008080Y-89088540D01*
X99054185Y-89239544D01*
X99062660Y-89266793D01*
X99100784Y-89388848D01*
X99106445Y-89406864D01*
X99125873Y-89472564D01*
X99135916Y-89506172D01*
X99146842Y-89539626D01*
X99152787Y-89556146D01*
X99159133Y-89572443D01*
X99165947Y-89588460D01*
X99173282Y-89604130D01*
X99181200Y-89619398D01*
X99189774Y-89634196D01*
X99199055Y-89648473D01*
X99209106Y-89662154D01*
X99216707Y-89670669D01*
X99224572Y-89679130D01*
X99232705Y-89687484D01*
X99241107Y-89695666D01*
X99249777Y-89703626D01*
X99258709Y-89711305D01*
X99267914Y-89718647D01*
X99277383Y-89725589D01*
X99287115Y-89732080D01*
X99297125Y-89738057D01*
X99307392Y-89743468D01*
X99317936Y-89748254D01*
X99328741Y-89752360D01*
X99339815Y-89755721D01*
X99349084Y-89757815D01*
X99351159Y-89758286D01*
X99356934Y-89759251D01*
X99362773Y-89759996D01*
X99368968Y-89760065D01*
X99374993Y-89759981D01*
X99380863Y-89759733D01*
X99386583Y-89759298D01*
X99392176Y-89758655D01*
X99397633Y-89757791D01*
X99402984Y-89756682D01*
X99408235Y-89755312D01*
X99413392Y-89753661D01*
X99418471Y-89751711D01*
X99423481Y-89749440D01*
X99428436Y-89746834D01*
X99433340Y-89743875D01*
X99438213Y-89740532D01*
X99443061Y-89736803D01*
X99447894Y-89732658D01*
X99451857Y-89727838D01*
X99455435Y-89722927D01*
X99458653Y-89717929D01*
X99461520Y-89712842D01*
X99464061Y-89707669D01*
X99466297Y-89702411D01*
X99468247Y-89697061D01*
X99469926Y-89691627D01*
X99471360Y-89686107D01*
X99472561Y-89680501D01*
X99473555Y-89674809D01*
X99474351Y-89669033D01*
X99474981Y-89663171D01*
X99475459Y-89657227D01*
X99476026Y-89645084D01*
X99476139Y-89633854D01*
X99476125Y-89624703D01*
X99475821Y-89615724D01*
X99475216Y-89606877D01*
X99474324Y-89598108D01*
X99473125Y-89589374D01*
X99471621Y-89580627D01*
X99469809Y-89571820D01*
X99467692Y-89562903D01*
X99461633Y-89539227D01*
X99455971Y-89515473D01*
X99450610Y-89491650D01*
X99445450Y-89467766D01*
X99443323Y-89457742D01*
X99431880Y-89401850D01*
X99421250Y-89345844D01*
X99411267Y-89289716D01*
X99401777Y-89233456D01*
X99490241Y-89198913D01*
X99526714Y-89184689D01*
X99580710Y-89163613D01*
X99634791Y-89142833D01*
X99689104Y-89122658D01*
X99743774Y-89103403D01*
X99743565Y-89106877D01*
X99743506Y-89108328D01*
X99743489Y-89109632D01*
X99743517Y-89110819D01*
X99743603Y-89111919D01*
X99743756Y-89112978D01*
X99743985Y-89114011D01*
X99744293Y-89115058D01*
X99744692Y-89116156D01*
X99745191Y-89117327D01*
X99745793Y-89118611D01*
X99746515Y-89120040D01*
X99747359Y-89121647D01*
X99749455Y-89125510D01*
X99757622Y-89141638D01*
X99768016Y-89162032D01*
X99778521Y-89182371D01*
X99799765Y-89222922D01*
X99816671Y-89254872D01*
X99825015Y-89270900D01*
X99833236Y-89286994D01*
X99848180Y-89316553D01*
X99863184Y-89345031D01*
X99870883Y-89358839D01*
X99878799Y-89372345D01*
X99886997Y-89385541D01*
X99895544Y-89398419D01*
X99904517Y-89410967D01*
X99913967Y-89423177D01*
X99923971Y-89435035D01*
X99934591Y-89446533D01*
X99945906Y-89457667D01*
X99957965Y-89468418D01*
X99970847Y-89478783D01*
X99984611Y-89488750D01*
X100002725Y-89499336D01*
X100011847Y-89504268D01*
X100021022Y-89508901D01*
X100030263Y-89513199D01*
X100039577Y-89517125D01*
X100048973Y-89520637D01*
X100058458Y-89523701D01*
X100068054Y-89526273D01*
X100077741Y-89528315D01*
X100087565Y-89529791D01*
X100097514Y-89530657D01*
X100107590Y-89530881D01*
X100117818Y-89530419D01*
X100128204Y-89529232D01*
X100138752Y-89527283D01*
X100143721Y-89524852D01*
X100148508Y-89522265D01*
X100153118Y-89519516D01*
X100157552Y-89516607D01*
X100161816Y-89513540D01*
X100165906Y-89510310D01*
X100169834Y-89506916D01*
X100173594Y-89503357D01*
X100177188Y-89499637D01*
X100180630Y-89495749D01*
X100183909Y-89491693D01*
X100187042Y-89487471D01*
X100190016Y-89483080D01*
X100192842Y-89478518D01*
X100195521Y-89473787D01*
X100198061Y-89468878D01*
X100202418Y-89420073D01*
X100203974Y-89399778D01*
X100205046Y-89381662D01*
X100205576Y-89365298D01*
X100205501Y-89350263D01*
X100204765Y-89336137D01*
X100203321Y-89322493D01*
X100201102Y-89308908D01*
X100198052Y-89294962D01*
X100194121Y-89280232D01*
X100189241Y-89264289D01*
X100183362Y-89246716D01*
X100176424Y-89227087D01*
X100159155Y-89179968D01*
X100129458Y-89095144D01*
X100101878Y-89009480D01*
X100076297Y-88923100D01*
X100052593Y-88836125D01*
X100030653Y-88748680D01*
X100010355Y-88660881D01*
X99991580Y-88572854D01*
X99974206Y-88484730D01*
X99969304Y-88458963D01*
X99964259Y-88433234D01*
X99958933Y-88407567D01*
X99953176Y-88381977D01*
X99950745Y-88371904D01*
X99948970Y-88364977D01*
X99947027Y-88358240D01*
X99944915Y-88351686D01*
X99942633Y-88345307D01*
X99940172Y-88339077D01*
X99937542Y-88332985D01*
X99934727Y-88327021D01*
X99931730Y-88321167D01*
X99928545Y-88315408D01*
X99925174Y-88309736D01*
X99921610Y-88304132D01*
X99917846Y-88298579D01*
X99913894Y-88293070D01*
X99909736Y-88287587D01*
X99905375Y-88282116D01*
X99900808Y-88276640D01*
X99894928Y-88271363D01*
X99888751Y-88266528D01*
X99882310Y-88262122D01*
X99875622Y-88258145D01*
X99868718Y-88254598D01*
X99861612Y-88251478D01*
X99854341Y-88248776D01*
X99846925Y-88246491D01*
X99839390Y-88244618D01*
X99831756Y-88243158D01*
X99824051Y-88242105D01*
X99816298Y-88241460D01*
X99808526Y-88241213D01*
X99800754Y-88241362D01*
X99793011Y-88241910D01*
X99785319Y-88242847D01*
X99777245Y-88245112D01*
X99769498Y-88247769D01*
X99762072Y-88250812D01*
X99754937Y-88254216D01*
X99748078Y-88257974D01*
X99741482Y-88262064D01*
X99735130Y-88266480D01*
X99729003Y-88271200D01*
X99723079Y-88276219D01*
X99717352Y-88281507D01*
X99711793Y-88287063D01*
X99706387Y-88292866D01*
X99701122Y-88298897D01*
X99695976Y-88305157D01*
X99690932Y-88311613D01*
X99685968Y-88318256D01*
X99674056Y-88339089D01*
X99663080Y-88360788D01*
X99653066Y-88383266D01*
X99644036Y-88406416D01*
X99636008Y-88430149D01*
X99629011Y-88454362D01*
X99623057Y-88478955D01*
X99618181Y-88503833D01*
X99614394Y-88528891D01*
X99611728Y-88554038D01*
X99610187Y-88579172D01*
X99609815Y-88604196D01*
X99610623Y-88629005D01*
X99612629Y-88653511D01*
X99615865Y-88677609D01*
X99620337Y-88701200D01*
X99623318Y-88713469D01*
X99625992Y-88725732D01*
X99628402Y-88737995D01*
X99630588Y-88750280D01*
X99632581Y-88762601D01*
X99634425Y-88774975D01*
X99637799Y-88799944D01*
X99631363Y-88801013D01*
X99626297Y-88801928D01*
X99624153Y-88802369D01*
X99622182Y-88802820D01*
X99620336Y-88803306D01*
X99618569Y-88803837D01*
X99616814Y-88804438D01*
X99615020Y-88805118D01*
X99613138Y-88805898D01*
X99611101Y-88806802D01*
X99606375Y-88809028D01*
X99600389Y-88811940D01*
X99581048Y-88820426D01*
X99561633Y-88828693D01*
X99522604Y-88844672D01*
X99483339Y-88860072D01*
X99443884Y-88875094D01*
X99431585Y-88879723D01*
X99348793Y-88910732D01*
X99347580Y-88903566D01*
X99346551Y-88897939D01*
X99346058Y-88895545D01*
X99345554Y-88893350D01*
X99345015Y-88891294D01*
X99344430Y-88889320D01*
X99343772Y-88887356D01*
X99343022Y-88885351D01*
X99342169Y-88883237D01*
X99341182Y-88880956D01*
X99338758Y-88875647D01*
X99335584Y-88868933D01*
X99329528Y-88855034D01*
X99315247Y-88822774D01*
X99300614Y-88790673D01*
X99270466Y-88726873D01*
X99239494Y-88663458D01*
X99208105Y-88600260D01*
X99203084Y-88590206D01*
X99191643Y-88567415D01*
X99180032Y-88545166D01*
X99174050Y-88534285D01*
X99167891Y-88523586D01*
X99161516Y-88513090D01*
X99154872Y-88502814D01*
X99147921Y-88492768D01*
X99140618Y-88482972D01*
X99132920Y-88473443D01*
X99124776Y-88464200D01*
X99116149Y-88455254D01*
X99106992Y-88446625D01*
X99097262Y-88438330D01*
X99086917Y-88430383D01*
X99080260Y-88426721D01*
X99073495Y-88423495D01*
X99066619Y-88420692D01*
X99059652Y-88418297D01*
X99052602Y-88416299D01*
X99045475Y-88414692D01*
X99038282Y-88413455D01*
X99031026Y-88412575D01*
X99023719Y-88412047D01*
X99016375Y-88411852D01*
X99008994Y-88411984D01*
X99001595Y-88412428D01*
X98994176Y-88413169D01*
X98986757Y-88414196D01*
X98979338Y-88415499D01*
X98971932Y-88417064D01*
X98965446Y-88419771D01*
X98959151Y-88422835D01*
X98953053Y-88426233D01*
X98947146Y-88429944D01*
X98941436Y-88433948D01*
X98935910Y-88438228D01*
X98930580Y-88442760D01*
X98925442Y-88447528D01*
X98920492Y-88452510D01*
X98915735Y-88457681D01*
X98911173Y-88463031D01*
X98906793Y-88468530D01*
X98902613Y-88474163D01*
X98898619Y-88479913D01*
X98894811Y-88485752D01*
X98891195Y-88491665D01*
X98888543Y-88498080D01*
X98886104Y-88504520D01*
X98883887Y-88510989D01*
X98881912Y-88517485D01*
X98880179Y-88524004D01*
X98878706Y-88530551D01*
X98877504Y-88537123D01*
X98876586Y-88543719D01*
X98875962Y-88550338D01*
X98875642Y-88556979D01*
X98875641Y-88563637D01*
X98214517Y-88563637D01*
X98201124Y-88562481D01*
X98186790Y-88562001D01*
X98173691Y-88567170D01*
X98168287Y-88569399D01*
X98163528Y-88571488D01*
X98159305Y-88573508D01*
X98155529Y-88575533D01*
X98152104Y-88577641D01*
X98148930Y-88579906D01*
X98145910Y-88582401D01*
X98142951Y-88585200D01*
X98139958Y-88588368D01*
X98136835Y-88591995D01*
X98133480Y-88596146D01*
X98129805Y-88600891D01*
X98121089Y-88612482D01*
X98110870Y-88626539D01*
X98105314Y-88634347D01*
X98100070Y-88642130D01*
X98095128Y-88649912D01*
X98090478Y-88657705D01*
X98086121Y-88665523D01*
X98082040Y-88673397D01*
X98078233Y-88681332D01*
X98074694Y-88689358D01*
X98071411Y-88697483D01*
X98068377Y-88705731D01*
X98065588Y-88714114D01*
X98063029Y-88722653D01*
X98060706Y-88731367D01*
X98058606Y-88740277D01*
X98056707Y-88749394D01*
X98055021Y-88758744D01*
X98053068Y-88771044D01*
X98050759Y-88785393D01*
X98048582Y-88799753D01*
X98046541Y-88814130D01*
X98044639Y-88828542D01*
X98034744Y-88950703D01*
X98031733Y-89020079D01*
X98030298Y-89093697D01*
X97683228Y-89093697D01*
X97677356Y-89085232D01*
X97652196Y-89052944D01*
X97625554Y-89022704D01*
X97614735Y-89011883D01*
X97591221Y-88989984D01*
X97565695Y-88969523D01*
X97538407Y-88950693D01*
X97509593Y-88933692D01*
X97479504Y-88918699D01*
X97448375Y-88905925D01*
X97416450Y-88895554D01*
X97383973Y-88887776D01*
X97351186Y-88882794D01*
X97334754Y-88881410D01*
X97318334Y-88880798D01*
X97301959Y-88880978D01*
X97285655Y-88881975D01*
X97269460Y-88883821D01*
X97253399Y-88886527D01*
X97237502Y-88890124D01*
X97221802Y-88894642D01*
X97206329Y-88900097D01*
X97191114Y-88906514D01*
X97176177Y-88913919D01*
X97161567Y-88922337D01*
X97147298Y-88931787D01*
X97133409Y-88942304D01*
X97125088Y-88950368D01*
X97117139Y-88958785D01*
X97109582Y-88967541D01*
X97102431Y-88976617D01*
X97095705Y-88985997D01*
X97089415Y-88995663D01*
X97083587Y-89005596D01*
X97078234Y-89015781D01*
X97073367Y-89026198D01*
X97069016Y-89036835D01*
X97065183Y-89047670D01*
X97061894Y-89058685D01*
X97059163Y-89069869D01*
X97057010Y-89081198D01*
X97055449Y-89092660D01*
X97054495Y-89104231D01*
X97054333Y-89112899D01*
X97054321Y-89121272D01*
X96802641Y-89121272D01*
X96800690Y-89117855D01*
X96795898Y-89113261D01*
X96790966Y-89108938D01*
X96785900Y-89104900D01*
X96780698Y-89101165D01*
X96775372Y-89097756D01*
X96769916Y-89094683D01*
X96764335Y-89091966D01*
X96758636Y-89089623D01*
X96752816Y-89087674D01*
X96746883Y-89086127D01*
X96740841Y-89085007D01*
X96734685Y-89084330D01*
X96728428Y-89084111D01*
X96722063Y-89084372D01*
X96715600Y-89085127D01*
X96709038Y-89086395D01*
X96700312Y-89089141D01*
X96691914Y-89092266D01*
X96683839Y-89095762D01*
X96676075Y-89099630D01*
X96668611Y-89103852D01*
X96661438Y-89108423D01*
X96654543Y-89113340D01*
X96647920Y-89118594D01*
X96641558Y-89124180D01*
X96635446Y-89130088D01*
X96631144Y-89134642D01*
X96629572Y-89136312D01*
X96623927Y-89142843D01*
X96618504Y-89149680D01*
X96613289Y-89156809D01*
X96608275Y-89164232D01*
X96603447Y-89171928D01*
X96595072Y-89188298D01*
X96590417Y-89197743D01*
X96586331Y-89207236D01*
X96582779Y-89216781D01*
X96579732Y-89226381D01*
X96577153Y-89236038D01*
X96575011Y-89245754D01*
X96573269Y-89255530D01*
X96571898Y-89265370D01*
X96570862Y-89275274D01*
X96570132Y-89285246D01*
X96569672Y-89295287D01*
X96569450Y-89305401D01*
X96569577Y-89325849D01*
X96570255Y-89346607D01*
X96571090Y-89366934D01*
X96573225Y-89407340D01*
X96576404Y-89447477D01*
X96580508Y-89487404D01*
X96585399Y-89527190D01*
X96590957Y-89566902D01*
X96597049Y-89606600D01*
X96610334Y-89686226D01*
X96612834Y-89700689D01*
X96608018Y-89700689D01*
X96602424Y-89692778D01*
X96596791Y-89685056D01*
X96591078Y-89677506D01*
X96585240Y-89670111D01*
X96579235Y-89662854D01*
X96573021Y-89655720D01*
X96566557Y-89648689D01*
X96559802Y-89641745D01*
X96551118Y-89633254D01*
X96537754Y-89620100D01*
X96524282Y-89607078D01*
X96517478Y-89600642D01*
X96510607Y-89594275D01*
X96503665Y-89587980D01*
X96496626Y-89581774D01*
X96488610Y-89574918D01*
X96480677Y-89568000D01*
X96472807Y-89561004D01*
X96464998Y-89553909D01*
X96442457Y-89533194D01*
X96419710Y-89512736D01*
X96396687Y-89492600D01*
X96385048Y-89482669D01*
X96373311Y-89472832D01*
X96357542Y-89459849D01*
X96344324Y-89448989D01*
X96331021Y-89438539D01*
X96317559Y-89428500D01*
X96303877Y-89418889D01*
X96289902Y-89409709D01*
X96275574Y-89400969D01*
X96268252Y-89396768D01*
X96260819Y-89392681D01*
X96253266Y-89388705D01*
X96245576Y-89384849D01*
X96234415Y-89379922D01*
X96228887Y-89377678D01*
X96223374Y-89375613D01*
X96217879Y-89373748D01*
X96212386Y-89372112D01*
X96206889Y-89370725D01*
X96201370Y-89369612D01*
X96195828Y-89368800D01*
X96190251Y-89368304D01*
X96184634Y-89368161D01*
X96178956Y-89368380D01*
X96173222Y-89368998D01*
X96167410Y-89370031D01*
X96161519Y-89371507D01*
X96155538Y-89373445D01*
X96152710Y-89376176D01*
X96150057Y-89378892D01*
X96147587Y-89381600D01*
X96145290Y-89384319D01*
X96143164Y-89387065D01*
X96141202Y-89389851D01*
X96139407Y-89392686D01*
X96137763Y-89395590D01*
X96136281Y-89398574D01*
X96134950Y-89401651D01*
X96133766Y-89404841D01*
X96132729Y-89408149D01*
X96131831Y-89411602D01*
X96131070Y-89415201D01*
X96130442Y-89418968D01*
X96129948Y-89422914D01*
X94789472Y-89422914D01*
X94789320Y-89422554D01*
X94783982Y-89411681D01*
X94779358Y-89404967D01*
X94774630Y-89398719D01*
X94769778Y-89392961D01*
X94764787Y-89387714D01*
X94759648Y-89383004D01*
X94754336Y-89378851D01*
X94751605Y-89376991D01*
X94748829Y-89375279D01*
X94745998Y-89373723D01*
X94743117Y-89372315D01*
X94740181Y-89371065D01*
X94737177Y-89369978D01*
X94734120Y-89369051D01*
X94731005Y-89368292D01*
X94727821Y-89367699D01*
X94724569Y-89367281D01*
X94721249Y-89367034D01*
X94717858Y-89366965D01*
X94714395Y-89367076D01*
X94710855Y-89367367D01*
X94707234Y-89367851D01*
X94703537Y-89368521D01*
X94699758Y-89369380D01*
X94696613Y-89370241D01*
X94695897Y-89370435D01*
X94691947Y-89371692D01*
X94687910Y-89373145D01*
X94679007Y-89381213D01*
X94670827Y-89389776D01*
X94663320Y-89398790D01*
X94656442Y-89408217D01*
X94650148Y-89418024D01*
X94644399Y-89428167D01*
X94639146Y-89438607D01*
X94634350Y-89449310D01*
X94629960Y-89460235D01*
X94625938Y-89471345D01*
X94622238Y-89482598D01*
X94618812Y-89493960D01*
X94612617Y-89516852D01*
X94607003Y-89539706D01*
X94604219Y-89551369D01*
X94593501Y-89596080D01*
X94588440Y-89618477D01*
X94583627Y-89640917D01*
X94579112Y-89663419D01*
X94574950Y-89685992D01*
X94571179Y-89708653D01*
X94567838Y-89731416D01*
X94565573Y-89749100D01*
X94561926Y-89779020D01*
X94558684Y-89808959D01*
X94553199Y-89868903D01*
X94548718Y-89928937D01*
X94544833Y-89989065D01*
X94538935Y-90082730D01*
X94536857Y-90115704D01*
X94535181Y-90146939D01*
X94534248Y-90162704D01*
X94533041Y-90178470D01*
X94531402Y-90194170D01*
X94530368Y-90201975D01*
X94529174Y-90209735D01*
X94527790Y-90217442D01*
X94526206Y-90225096D01*
X94524391Y-90232672D01*
X94522333Y-90240174D01*
X94519464Y-90243703D01*
X94518145Y-90245261D01*
X94516869Y-90246689D01*
X94515628Y-90247993D01*
X94514388Y-90249186D01*
X94513139Y-90250273D01*
X94511852Y-90251261D01*
X94510512Y-90252160D01*
X94509095Y-90252977D01*
X94507580Y-90253718D01*
X94505947Y-90254391D01*
X94504178Y-90255006D01*
X94502245Y-90255568D01*
X94500139Y-90256090D01*
X94497828Y-90256571D01*
X94486129Y-90256714D01*
X94472854Y-90256880D01*
X94458508Y-90256734D01*
X94430911Y-90255962D01*
X94403616Y-90254108D01*
X94376562Y-90251229D01*
X94349706Y-90247387D01*
X94322973Y-90242649D01*
X94296325Y-90237070D01*
X94269695Y-90230717D01*
X94243034Y-90223654D01*
X94221767Y-90217946D01*
X94200763Y-90212902D01*
X94190328Y-90210713D01*
X94179907Y-90208790D01*
X94169496Y-90207166D01*
X94159080Y-90205879D01*
X94148641Y-90204956D01*
X94138164Y-90204432D01*
X94127643Y-90204342D01*
X94117052Y-90204723D01*
X94106383Y-90205603D01*
X94095622Y-90207015D01*
X94084755Y-90208995D01*
X94073762Y-90211573D01*
X94069819Y-90213280D01*
X94066009Y-90215094D01*
X94062319Y-90217025D01*
X94058768Y-90219078D01*
X94055341Y-90221256D01*
X94052040Y-90223558D01*
X94048874Y-90226000D01*
X94045833Y-90228573D01*
X94042922Y-90231290D01*
X94040143Y-90234152D01*
X94037496Y-90237169D01*
X94034972Y-90240333D01*
X94032583Y-90243659D01*
X94030325Y-90247147D01*
X94028199Y-90250799D01*
X94026197Y-90254623D01*
X94025878Y-90257239D01*
X94025648Y-90259792D01*
X94025511Y-90262284D01*
X94025464Y-90264728D01*
X92847839Y-90264728D01*
X92820829Y-90247715D01*
X92783303Y-90223612D01*
X92745978Y-90199193D01*
X92708832Y-90174470D01*
X92676950Y-90153142D01*
X92645017Y-90131896D01*
X92538318Y-90060317D01*
X92432474Y-89987652D01*
X92327558Y-89913661D01*
X92223629Y-89838103D01*
X92189315Y-89812817D01*
X92129292Y-89768461D01*
X92069649Y-89723625D01*
X92010342Y-89678338D01*
X91951348Y-89632624D01*
X91928050Y-89614484D01*
X91904646Y-89596469D01*
X91878569Y-89576348D01*
X91878144Y-89576013D01*
X92601735Y-89576013D01*
X92602573Y-89591011D01*
X92604312Y-89605970D01*
X92606990Y-89620863D01*
X92610657Y-89635661D01*
X92614408Y-89645157D01*
X92618516Y-89654442D01*
X92627723Y-89672385D01*
X92638187Y-89689518D01*
X92649805Y-89705863D01*
X92662472Y-89721444D01*
X92676101Y-89736284D01*
X92690577Y-89750407D01*
X92705819Y-89763837D01*
X92721720Y-89776594D01*
X92738180Y-89788708D01*
X92755102Y-89800194D01*
X92772399Y-89811084D01*
X92789956Y-89821398D01*
X92807676Y-89831161D01*
X92825476Y-89840389D01*
X92843240Y-89849117D01*
X92873451Y-89862780D01*
X92906131Y-89876684D01*
X92923177Y-89883380D01*
X92940592Y-89889722D01*
X92958280Y-89895567D01*
X92976160Y-89900776D01*
X92994140Y-89905215D01*
X93012147Y-89908741D01*
X93030083Y-89911219D01*
X93047870Y-89912510D01*
X93065425Y-89912468D01*
X93082655Y-89910963D01*
X93091123Y-89909618D01*
X93099482Y-89907853D01*
X93107715Y-89905650D01*
X93115813Y-89902996D01*
X93117723Y-89901025D01*
X93119441Y-89899096D01*
X93120990Y-89897204D01*
X93122388Y-89895331D01*
X93123643Y-89893467D01*
X93124776Y-89891598D01*
X93125796Y-89889710D01*
X93126723Y-89887793D01*
X93127571Y-89885837D01*
X93128352Y-89883820D01*
X93129081Y-89881738D01*
X93129772Y-89879576D01*
X93131110Y-89874955D01*
X93132477Y-89869862D01*
X93135178Y-89859368D01*
X93137918Y-89848884D01*
X93141027Y-89837086D01*
X93147716Y-89812486D01*
X93397827Y-89812486D01*
X93398681Y-89842947D01*
X93401147Y-89872931D01*
X93405389Y-89902335D01*
X93411560Y-89931060D01*
X93414464Y-89941532D01*
X93422518Y-89970871D01*
X93426737Y-89985160D01*
X93431155Y-89999190D01*
X93435833Y-90012960D01*
X93440816Y-90026475D01*
X93446166Y-90039733D01*
X93451937Y-90052734D01*
X93458181Y-90065476D01*
X93464953Y-90077957D01*
X93472312Y-90090186D01*
X93480313Y-90102151D01*
X93489003Y-90113861D01*
X93498445Y-90125310D01*
X93508688Y-90136501D01*
X93519793Y-90147432D01*
X93549322Y-90162185D01*
X93561662Y-90168138D01*
X93572760Y-90173221D01*
X93582889Y-90177493D01*
X93592337Y-90181009D01*
X93601377Y-90183836D01*
X93610288Y-90186030D01*
X93619355Y-90187646D01*
X93628853Y-90188750D01*
X93639062Y-90189395D01*
X93650267Y-90189643D01*
X93662742Y-90189555D01*
X93676762Y-90189193D01*
X93710577Y-90187859D01*
X93725784Y-90186604D01*
X93740980Y-90184534D01*
X93756124Y-90181667D01*
X93771173Y-90178033D01*
X93786084Y-90173657D01*
X93800810Y-90168566D01*
X93815314Y-90162782D01*
X93829557Y-90156333D01*
X93843485Y-90149242D01*
X93857061Y-90141535D01*
X93870247Y-90133238D01*
X93882996Y-90124378D01*
X93895256Y-90114978D01*
X93907003Y-90105065D01*
X93918182Y-90094661D01*
X93928754Y-90083798D01*
X93939495Y-90071584D01*
X93966282Y-90031175D01*
X93986885Y-89999066D01*
X93995309Y-89985154D01*
X94002721Y-89972162D01*
X94009286Y-89959695D01*
X94015191Y-89947367D01*
X94020606Y-89934799D01*
X94025705Y-89921595D01*
X94030666Y-89907371D01*
X94035670Y-89891738D01*
X94046489Y-89854702D01*
X94059579Y-89807396D01*
X94065016Y-89788428D01*
X94070513Y-89769480D01*
X94099197Y-89669630D01*
X94113140Y-89619590D01*
X94126783Y-89569466D01*
X94129292Y-89560136D01*
X94144874Y-89503432D01*
X94152312Y-89474160D01*
X94155691Y-89459381D01*
X94158739Y-89444538D01*
X94161387Y-89429658D01*
X94163562Y-89414761D01*
X94165187Y-89399879D01*
X94166199Y-89385029D01*
X94166514Y-89370241D01*
X94166059Y-89355539D01*
X94164777Y-89340945D01*
X94162577Y-89326483D01*
X94160297Y-89321072D01*
X94157832Y-89315868D01*
X94155178Y-89310867D01*
X94152340Y-89306070D01*
X94149317Y-89301458D01*
X94146097Y-89297044D01*
X94142688Y-89292812D01*
X94139091Y-89288762D01*
X94135298Y-89284888D01*
X94131308Y-89281188D01*
X94127130Y-89277655D01*
X94122750Y-89274285D01*
X94118181Y-89271076D01*
X94113406Y-89268023D01*
X94108438Y-89265117D01*
X94103267Y-89262360D01*
X94099075Y-89261860D01*
X94095132Y-89261456D01*
X94091408Y-89261165D01*
X94087861Y-89260982D01*
X94084462Y-89260917D01*
X94081187Y-89260969D01*
X94077987Y-89261152D01*
X94074842Y-89261462D01*
X94071717Y-89261910D01*
X94068575Y-89262500D01*
X94065389Y-89263236D01*
X94062115Y-89264122D01*
X94058737Y-89265163D01*
X94055206Y-89266369D01*
X94051495Y-89267741D01*
X94047573Y-89269285D01*
X94025704Y-89294836D01*
X94016768Y-89305570D01*
X94008988Y-89315284D01*
X94002238Y-89324252D01*
X93996388Y-89332732D01*
X93991304Y-89340982D01*
X93986862Y-89349263D01*
X93982921Y-89357845D01*
X93979363Y-89366990D01*
X93976049Y-89376949D01*
X93972849Y-89387997D01*
X93969638Y-89400387D01*
X93966284Y-89414386D01*
X93958617Y-89448260D01*
X93950970Y-89479774D01*
X93939408Y-89526777D01*
X93907604Y-89656088D01*
X93896464Y-89701203D01*
X93881113Y-89768277D01*
X93872865Y-89803650D01*
X93863669Y-89839237D01*
X93858578Y-89856880D01*
X93853092Y-89874295D01*
X93847153Y-89891386D01*
X93840707Y-89908062D01*
X93833707Y-89924229D01*
X93826089Y-89939790D01*
X93817806Y-89954656D01*
X93808807Y-89968730D01*
X93804863Y-89973518D01*
X93800800Y-89978052D01*
X93796618Y-89982333D01*
X93792310Y-89986363D01*
X93787875Y-89990146D01*
X93783309Y-89993682D01*
X93778605Y-89996974D01*
X93773760Y-90000024D01*
X93768778Y-90002831D01*
X93763640Y-90005406D01*
X93758358Y-90007743D01*
X93752916Y-90009843D01*
X93747316Y-90011713D01*
X93741560Y-90013354D01*
X93735627Y-90014763D01*
X93729532Y-90015949D01*
X93724278Y-90016105D01*
X93719144Y-90016085D01*
X93714122Y-90015886D01*
X93709202Y-90015509D01*
X93704378Y-90014938D01*
X93699643Y-90014177D01*
X93694986Y-90013215D01*
X93690402Y-90012042D01*
X93685876Y-90010658D01*
X93681408Y-90009055D01*
X93676986Y-90007230D01*
X93672602Y-90005172D01*
X93668256Y-90002877D01*
X93663923Y-90000343D01*
X93659610Y-89997552D01*
X93655305Y-89994515D01*
X93652175Y-89991052D01*
X93649238Y-89987447D01*
X93643906Y-89979870D01*
X93639259Y-89971831D01*
X93635256Y-89963393D01*
X93631839Y-89954604D01*
X93628973Y-89945524D01*
X93626595Y-89936206D01*
X93624674Y-89926701D01*
X93623152Y-89917067D01*
X93621989Y-89907360D01*
X93621132Y-89897633D01*
X93620540Y-89887936D01*
X93619949Y-89868872D01*
X93619842Y-89850595D01*
X93620079Y-89832549D01*
X93620452Y-89802452D01*
X93621668Y-89772467D01*
X93623632Y-89742586D01*
X93626252Y-89712778D01*
X93629431Y-89683012D01*
X93633078Y-89653267D01*
X93641396Y-89593734D01*
X93644153Y-89575208D01*
X93646847Y-89556678D01*
X93649375Y-89539488D01*
X93652074Y-89522436D01*
X93654985Y-89505500D01*
X93658177Y-89488664D01*
X93661697Y-89471892D01*
X93665601Y-89455170D01*
X93669947Y-89438469D01*
X93674790Y-89421769D01*
X93677750Y-89411918D01*
X93680579Y-89402037D01*
X93685917Y-89382194D01*
X93690936Y-89362265D01*
X93695788Y-89342278D01*
X93698147Y-89331322D01*
X93700110Y-89320658D01*
X93701654Y-89310264D01*
X93702758Y-89300102D01*
X93703403Y-89290148D01*
X93703575Y-89280367D01*
X93703242Y-89270724D01*
X93702394Y-89261200D01*
X93701012Y-89251751D01*
X93699065Y-89242355D01*
X93696545Y-89232975D01*
X93693425Y-89223586D01*
X93689685Y-89214155D01*
X93685311Y-89204648D01*
X93680277Y-89195036D01*
X93674573Y-89185288D01*
X93669301Y-89180793D01*
X93664004Y-89176888D01*
X93661348Y-89175154D01*
X93658681Y-89173564D01*
X93656001Y-89172118D01*
X93653316Y-89170811D01*
X93650618Y-89169640D01*
X93647909Y-89168614D01*
X93645194Y-89167717D01*
X93642464Y-89166957D01*
X93639726Y-89166331D01*
X93636974Y-89165838D01*
X93634208Y-89165476D01*
X93631427Y-89165241D01*
X93628636Y-89165129D01*
X93625831Y-89165150D01*
X93620178Y-89165555D01*
X93614461Y-89166445D01*
X93608683Y-89167811D01*
X93602836Y-89169638D01*
X93596918Y-89171911D01*
X93590928Y-89174627D01*
X93584857Y-89177760D01*
X93570408Y-89188757D01*
X93557210Y-89200544D01*
X93545193Y-89213071D01*
X93534273Y-89226284D01*
X93524376Y-89240119D01*
X93515429Y-89254526D01*
X93507353Y-89269453D01*
X93500077Y-89284830D01*
X93493526Y-89300611D01*
X93487618Y-89316741D01*
X93482282Y-89333161D01*
X93477446Y-89349816D01*
X93468958Y-89383602D01*
X93461540Y-89417651D01*
X93455756Y-89445534D01*
X93430086Y-89563386D01*
X93417733Y-89625176D01*
X93412233Y-89656438D01*
X93407389Y-89687817D01*
X93403371Y-89719207D01*
X93400333Y-89750518D01*
X93398433Y-89781644D01*
X93397827Y-89812486D01*
X93147716Y-89812486D01*
X93174025Y-89715725D01*
X93208845Y-89594860D01*
X93245008Y-89474386D01*
X93282037Y-89354195D01*
X93295606Y-89310451D01*
X93309055Y-89266671D01*
X93313307Y-89252724D01*
X93319742Y-89231736D01*
X93326095Y-89210722D01*
X93330015Y-89197542D01*
X93333477Y-89186131D01*
X93335140Y-89180427D01*
X93336735Y-89174713D01*
X93338251Y-89168981D01*
X93339678Y-89163218D01*
X93340999Y-89157420D01*
X93342211Y-89151573D01*
X93342676Y-89145699D01*
X93342982Y-89140060D01*
X93343103Y-89134642D01*
X93343019Y-89129414D01*
X93342724Y-89124359D01*
X93342206Y-89119446D01*
X93341437Y-89114659D01*
X93340414Y-89109973D01*
X93339113Y-89105360D01*
X93337534Y-89100802D01*
X93335645Y-89096277D01*
X93333437Y-89091757D01*
X93330897Y-89087226D01*
X93328011Y-89082652D01*
X93324761Y-89078017D01*
X93321136Y-89073298D01*
X93301811Y-89053394D01*
X93280381Y-89034507D01*
X93257065Y-89016693D01*
X93232094Y-89000000D01*
X93205680Y-88984479D01*
X93178061Y-88970187D01*
X93149452Y-88957167D01*
X93120080Y-88945478D01*
X93090173Y-88935164D01*
X93059951Y-88926279D01*
X93029644Y-88918882D01*
X92999467Y-88913014D01*
X92969651Y-88908736D01*
X92940420Y-88906091D01*
X92912000Y-88905133D01*
X92884608Y-88905915D01*
X92878551Y-88906921D01*
X92872592Y-88908121D01*
X92866740Y-88909522D01*
X92861004Y-88911133D01*
X92855387Y-88912969D01*
X92849899Y-88915034D01*
X92844546Y-88917338D01*
X92839327Y-88919895D01*
X92834260Y-88922712D01*
X92829341Y-88925795D01*
X92824592Y-88929160D01*
X92820000Y-88932814D01*
X92815583Y-88936765D01*
X92811348Y-88941024D01*
X92807300Y-88945601D01*
X92803437Y-88950508D01*
X92797906Y-88958898D01*
X92793520Y-88965756D01*
X92789365Y-88972669D01*
X92785415Y-88979647D01*
X92781656Y-88986705D01*
X92778057Y-88993849D01*
X92774596Y-89001091D01*
X92771264Y-89008443D01*
X92768024Y-89015910D01*
X92762473Y-89033254D01*
X92758264Y-89050340D01*
X92755332Y-89067197D01*
X92753606Y-89083841D01*
X92753013Y-89100309D01*
X92753479Y-89116617D01*
X92754934Y-89132793D01*
X92757314Y-89148865D01*
X92760535Y-89164855D01*
X92764536Y-89180783D01*
X92769241Y-89196685D01*
X92774574Y-89212579D01*
X92780484Y-89228493D01*
X92786875Y-89244452D01*
X92800841Y-89276601D01*
X92807541Y-89291261D01*
X92800920Y-89290919D01*
X92798469Y-89290831D01*
X92796204Y-89290807D01*
X92793854Y-89290831D01*
X92791136Y-89290919D01*
X92783456Y-89291261D01*
X92772210Y-89294508D01*
X92761396Y-89298379D01*
X92750995Y-89302850D01*
X92741002Y-89307886D01*
X92731405Y-89313467D01*
X92722187Y-89319561D01*
X92713343Y-89326147D01*
X92704861Y-89333198D01*
X92696723Y-89340680D01*
X92688923Y-89348576D01*
X92681455Y-89356856D01*
X92674291Y-89365494D01*
X92667431Y-89374459D01*
X92660864Y-89383727D01*
X92654574Y-89393274D01*
X92648555Y-89403072D01*
X92641455Y-89416385D01*
X92634818Y-89429985D01*
X92628670Y-89443856D01*
X92623061Y-89457959D01*
X92618010Y-89472274D01*
X92613573Y-89486767D01*
X92609774Y-89501420D01*
X92606658Y-89516193D01*
X92604254Y-89531067D01*
X92602613Y-89546014D01*
X92601755Y-89561006D01*
X92601735Y-89576013D01*
X91878144Y-89576013D01*
X91852707Y-89555985D01*
X91827013Y-89535402D01*
X91801444Y-89514640D01*
X91751157Y-89473644D01*
X91741217Y-89465569D01*
X91716233Y-89445286D01*
X91691145Y-89425133D01*
X91664296Y-89403508D01*
X91637736Y-89381548D01*
X91611389Y-89359329D01*
X91585181Y-89336928D01*
X91576577Y-89329533D01*
X91559377Y-89314743D01*
X91547691Y-89304707D01*
X91535954Y-89294726D01*
X91524153Y-89284824D01*
X91512266Y-89275021D01*
X91494903Y-89260831D01*
X91486321Y-89253653D01*
X91477802Y-89246410D01*
X91469352Y-89239090D01*
X91460964Y-89231689D01*
X91452640Y-89224190D01*
X91444378Y-89216599D01*
X91430670Y-89204038D01*
X91423766Y-89197854D01*
X91416810Y-89191731D01*
X91409800Y-89185664D01*
X91402730Y-89179664D01*
X91395595Y-89173717D01*
X91388386Y-89167828D01*
X91375424Y-89157247D01*
X91362634Y-89146511D01*
X91350002Y-89135598D01*
X91337502Y-89124477D01*
X91321305Y-89109765D01*
X91313159Y-89102460D01*
X91304951Y-89095218D01*
X91289639Y-89081821D01*
X91274478Y-89068266D01*
X91259435Y-89054579D01*
X91244478Y-89040783D01*
X91223255Y-89021178D01*
X91212561Y-89011465D01*
X91201768Y-89001857D01*
X91190468Y-88992007D01*
X91184887Y-88987043D01*
X91179355Y-88982032D01*
X91173875Y-88976965D01*
X91168452Y-88971831D01*
X91163084Y-88966619D01*
X91157777Y-88961307D01*
X91154458Y-88957917D01*
X91151136Y-88954596D01*
X91147789Y-88951345D01*
X91144414Y-88948148D01*
X91140988Y-88945008D01*
X91137490Y-88941915D01*
X91133917Y-88938862D01*
X91130250Y-88935850D01*
X91126538Y-88932866D01*
X91122887Y-88929887D01*
X91119309Y-88926894D01*
X91115790Y-88923850D01*
X91112338Y-88920737D01*
X91108954Y-88917532D01*
X91105637Y-88914203D01*
X91103997Y-88912486D01*
X91102385Y-88910732D01*
X91101396Y-88905437D01*
X91101007Y-88903250D01*
X91100686Y-88901305D01*
X91100443Y-88899564D01*
X91100266Y-88897987D01*
X91100162Y-88896529D01*
X91100126Y-88895151D01*
X91100162Y-88893808D01*
X91100266Y-88892458D01*
X91100443Y-88891054D01*
X91100686Y-88889563D01*
X91101007Y-88887936D01*
X91101396Y-88886133D01*
X91102385Y-88881831D01*
X91105584Y-88878648D01*
X91106921Y-88877357D01*
X91108122Y-88876241D01*
X91109222Y-88875289D01*
X91110240Y-88874487D01*
X91111218Y-88873813D01*
X91111696Y-88873518D01*
X91112177Y-88873253D01*
X91112665Y-88873013D01*
X91113155Y-88872793D01*
X91113656Y-88872595D01*
X91114176Y-88872417D01*
X91115273Y-88872109D01*
X91116471Y-88871850D01*
X91117807Y-88871632D01*
X91119314Y-88871430D01*
X91122939Y-88871024D01*
X91136863Y-88871071D01*
X91152856Y-88871050D01*
X91170507Y-88871177D01*
X91218834Y-88871272D01*
X91282787Y-88871488D01*
X91396991Y-88871775D01*
X91589197Y-88872289D01*
X91611445Y-88872327D01*
X91726239Y-88872154D01*
X91841016Y-88871229D01*
X91955787Y-88869616D01*
X92070568Y-88867378D01*
X92071821Y-88862133D01*
X92072856Y-88857433D01*
X92073276Y-88855239D01*
X92073616Y-88853109D01*
X92073869Y-88851029D01*
X92074022Y-88848972D01*
X92074075Y-88846918D01*
X92074017Y-88844842D01*
X92073838Y-88842726D01*
X92073532Y-88840545D01*
X92073082Y-88838273D01*
X92072488Y-88835893D01*
X92071739Y-88833385D01*
X92070828Y-88830719D01*
X92063433Y-88816992D01*
X92055013Y-88801069D01*
X92047849Y-88787845D01*
X92040744Y-88774597D01*
X92025446Y-88745680D01*
X92010893Y-88718159D01*
X91996483Y-88690566D01*
X91967987Y-88635211D01*
X91937267Y-88575190D01*
X91931066Y-88563090D01*
X91863742Y-88432058D01*
X91801099Y-88310082D01*
X91794559Y-88297300D01*
X91761845Y-88233350D01*
X91732485Y-88176008D01*
X91717693Y-88147391D01*
X91702764Y-88118850D01*
X91692838Y-88100003D01*
X91679195Y-88074111D01*
X91670752Y-88058351D01*
X91663167Y-88043945D01*
X91659803Y-88037390D01*
X91658263Y-88034172D01*
X91656816Y-88030979D01*
X91655464Y-88027804D01*
X91654206Y-88024628D01*
X91653037Y-88021446D01*
X91651965Y-88018247D01*
X91650982Y-88015020D01*
X91650092Y-88011752D01*
X91649297Y-88008433D01*
X91648591Y-88005059D01*
X91647981Y-88001605D01*
X91647459Y-87998074D01*
X91647027Y-87994448D01*
X91646688Y-87990716D01*
X91649891Y-87985936D01*
X91651230Y-87983983D01*
X91652449Y-87982281D01*
X91653566Y-87980805D01*
X91654617Y-87979522D01*
X91655641Y-87978407D01*
X91656147Y-87977906D01*
X91656656Y-87977428D01*
X91657174Y-87976986D01*
X91657707Y-87976566D01*
X91658256Y-87976165D01*
X91658823Y-87975779D01*
X91660036Y-87975045D01*
X91661375Y-87974332D01*
X91662873Y-87973613D01*
X91664566Y-87972865D01*
X91668665Y-87971148D01*
X91674148Y-87971259D01*
X91676394Y-87971320D01*
X91678375Y-87971401D01*
X91680110Y-87971503D01*
X91681648Y-87971644D01*
X91683015Y-87971820D01*
X91684257Y-87972041D01*
X91684843Y-87972175D01*
X91685413Y-87972325D01*
X91685965Y-87972488D01*
X91686514Y-87972667D01*
X91687597Y-87973083D01*
X91688703Y-87973581D01*
X91689866Y-87974158D01*
X91691130Y-87974839D01*
X91694089Y-87976511D01*
X91704886Y-87984111D01*
X91715811Y-87991460D01*
X91726844Y-87998594D01*
X91737983Y-88005544D01*
X91749216Y-88012341D01*
X91760537Y-88019022D01*
X91783414Y-88032156D01*
X91792091Y-88037080D01*
X91855186Y-88072778D01*
X91863440Y-88077415D01*
X91920812Y-88108965D01*
X91978667Y-88139525D01*
X92036943Y-88169273D01*
X92095589Y-88198386D01*
X92104286Y-88202654D01*
X92215153Y-88256140D01*
X92326778Y-88307875D01*
X92439222Y-88357817D01*
X92552530Y-88405905D01*
X92561881Y-88409780D01*
X92624803Y-88435494D01*
X92688028Y-88460492D01*
X92751534Y-88484776D01*
X92815324Y-88508335D01*
X92879377Y-88531155D01*
X92943686Y-88553240D01*
X93008235Y-88574572D01*
X93073022Y-88595146D01*
X93108920Y-88606325D01*
X93474069Y-88690105D01*
X93791902Y-88756762D01*
X93935162Y-88784124D01*
X94069117Y-88807744D01*
X94194587Y-88827801D01*
X94312426Y-88844482D01*
X94423458Y-88857961D01*
X94528531Y-88868423D01*
X94628482Y-88876043D01*
X94724150Y-88881004D01*
X94816368Y-88883489D01*
X94905980Y-88883669D01*
X94993825Y-88881733D01*
X95080728Y-88877856D01*
X95095534Y-88877013D01*
X95181464Y-88871764D01*
X95267335Y-88865143D01*
X95353107Y-88857082D01*
X95438723Y-88847501D01*
X95524141Y-88836326D01*
X95609309Y-88823479D01*
X95694178Y-88808884D01*
X95778705Y-88792467D01*
X95789155Y-88790309D01*
X95932398Y-88758619D01*
X96074400Y-88722695D01*
X96215084Y-88682489D01*
X96354377Y-88637975D01*
X96492203Y-88589117D01*
X96628486Y-88535877D01*
X96763150Y-88478216D01*
X96896125Y-88416102D01*
X96959136Y-88385960D01*
X97022509Y-88356618D01*
X97086154Y-88327867D01*
X97149977Y-88299469D01*
X97161953Y-88294176D01*
X97501669Y-88164462D01*
X97801229Y-88055553D01*
X98066486Y-87965620D01*
X98188081Y-87927211D01*
X98303307Y-87892870D01*
X98412887Y-87862365D01*
X98517564Y-87835478D01*
X98618057Y-87811976D01*
X98715110Y-87791638D01*
X98809455Y-87774238D01*
X98901823Y-87759543D01*
X98992941Y-87747330D01*
X99083553Y-87737376D01*
X99098176Y-87735916D01*
X99112792Y-87734359D01*
X99156964Y-87729900D01*
X99201115Y-87726443D01*
X99245274Y-87723866D01*
X99289443Y-87722037D01*
X99333646Y-87720836D01*
X99377888Y-87720139D01*
X99466562Y-87719762D01*
X99478851Y-87719770D01*
X99550317Y-87719893D01*
X99572776Y-87719996D01*
X99625813Y-87720767D01*
X99678799Y-87722792D01*
X99731719Y-87726074D01*
X99784533Y-87730615D01*
X99837207Y-87736421D01*
X99889716Y-87743503D01*
X99942020Y-87751858D01*
X99994094Y-87761497D01*
X100045908Y-87772423D01*
X100097420Y-87784635D01*
X100148609Y-87798145D01*
X100199441Y-87812956D01*
X100249880Y-87829073D01*
X100299899Y-87846503D01*
X100349464Y-87865244D01*
X100398543Y-87885307D01*
X100408491Y-87889561D01*
X100410148Y-87880355D01*
X100412501Y-87868379D01*
X100413859Y-87861325D01*
X100414386Y-87858830D01*
X100414898Y-87856668D01*
X100415463Y-87854584D01*
X100416144Y-87852323D01*
X100417012Y-87849614D01*
X100418127Y-87846211D01*
X100422036Y-87844006D01*
X100425890Y-87842134D01*
X100429706Y-87840578D01*
X100433489Y-87839325D01*
X100437257Y-87838358D01*
X100441015Y-87837653D01*
X100444782Y-87837199D01*
X100448561Y-87836974D01*
X100452370Y-87836958D01*
X100456217Y-87837146D01*
X100460111Y-87837513D01*
X100464070Y-87838036D01*
X100468099Y-87838703D01*
X100472219Y-87839496D01*
X100480746Y-87841394D01*
X100492833Y-87847593D01*
X100497918Y-87850451D01*
X100502533Y-87853366D01*
X100506804Y-87856491D01*
X100510868Y-87859993D01*
X100514846Y-87864028D01*
X100518862Y-87868761D01*
X100523045Y-87874348D01*
X100527529Y-87880954D01*
X100532435Y-87888730D01*
X100537890Y-87897851D01*
X100550967Y-87920739D01*
X100567782Y-87950897D01*
X100575880Y-87965727D01*
X100593642Y-87997942D01*
X100605826Y-88020162D01*
X100618101Y-88042330D01*
X100644302Y-88089891D01*
X100669834Y-88137825D01*
X100694798Y-88186083D01*
X100719272Y-88234599D01*
X100767110Y-88332188D01*
X100814064Y-88430137D01*
X100827330Y-88457878D01*
X100874334Y-88557123D01*
X100920304Y-88656823D01*
X100965246Y-88756983D01*
X101009150Y-88857588D01*
X101052026Y-88958641D01*
X101093865Y-89060136D01*
X101134671Y-89162058D01*
X101174445Y-89264410D01*
X101179189Y-89276808D01*
X101207466Y-89365298D01*
X101282427Y-89599851D01*
G37*
D11*
X96552333Y-64936985D02*
X96552333Y-65656652D01*
X96552333Y-65656652D02*
X96510000Y-65741318D01*
X96510000Y-65741318D02*
X96467666Y-65783652D01*
X96467666Y-65783652D02*
X96383000Y-65825985D01*
X96383000Y-65825985D02*
X96213666Y-65825985D01*
X96213666Y-65825985D02*
X96129000Y-65783652D01*
X96129000Y-65783652D02*
X96086666Y-65741318D01*
X96086666Y-65741318D02*
X96044333Y-65656652D01*
X96044333Y-65656652D02*
X96044333Y-64936985D01*
X95155333Y-65825985D02*
X95663333Y-65825985D01*
X95409333Y-65825985D02*
X95409333Y-64936985D01*
X95409333Y-64936985D02*
X95494000Y-65063985D01*
X95494000Y-65063985D02*
X95578667Y-65148652D01*
X95578667Y-65148652D02*
X95663333Y-65190985D01*
D12*
X100636904Y-61787200D02*
X100494047Y-61834819D01*
X100494047Y-61834819D02*
X100255952Y-61834819D01*
X100255952Y-61834819D02*
X100160714Y-61787200D01*
X100160714Y-61787200D02*
X100113095Y-61739580D01*
X100113095Y-61739580D02*
X100065476Y-61644342D01*
X100065476Y-61644342D02*
X100065476Y-61549104D01*
X100065476Y-61549104D02*
X100113095Y-61453866D01*
X100113095Y-61453866D02*
X100160714Y-61406247D01*
X100160714Y-61406247D02*
X100255952Y-61358628D01*
X100255952Y-61358628D02*
X100446428Y-61311009D01*
X100446428Y-61311009D02*
X100541666Y-61263390D01*
X100541666Y-61263390D02*
X100589285Y-61215771D01*
X100589285Y-61215771D02*
X100636904Y-61120533D01*
X100636904Y-61120533D02*
X100636904Y-61025295D01*
X100636904Y-61025295D02*
X100589285Y-60930057D01*
X100589285Y-60930057D02*
X100541666Y-60882438D01*
X100541666Y-60882438D02*
X100446428Y-60834819D01*
X100446428Y-60834819D02*
X100208333Y-60834819D01*
X100208333Y-60834819D02*
X100065476Y-60882438D01*
X99255952Y-61787200D02*
X99351190Y-61834819D01*
X99351190Y-61834819D02*
X99541666Y-61834819D01*
X99541666Y-61834819D02*
X99636904Y-61787200D01*
X99636904Y-61787200D02*
X99684523Y-61691961D01*
X99684523Y-61691961D02*
X99684523Y-61311009D01*
X99684523Y-61311009D02*
X99636904Y-61215771D01*
X99636904Y-61215771D02*
X99541666Y-61168152D01*
X99541666Y-61168152D02*
X99351190Y-61168152D01*
X99351190Y-61168152D02*
X99255952Y-61215771D01*
X99255952Y-61215771D02*
X99208333Y-61311009D01*
X99208333Y-61311009D02*
X99208333Y-61406247D01*
X99208333Y-61406247D02*
X99684523Y-61501485D01*
X98398809Y-61787200D02*
X98494047Y-61834819D01*
X98494047Y-61834819D02*
X98684523Y-61834819D01*
X98684523Y-61834819D02*
X98779761Y-61787200D01*
X98779761Y-61787200D02*
X98827380Y-61691961D01*
X98827380Y-61691961D02*
X98827380Y-61311009D01*
X98827380Y-61311009D02*
X98779761Y-61215771D01*
X98779761Y-61215771D02*
X98684523Y-61168152D01*
X98684523Y-61168152D02*
X98494047Y-61168152D01*
X98494047Y-61168152D02*
X98398809Y-61215771D01*
X98398809Y-61215771D02*
X98351190Y-61311009D01*
X98351190Y-61311009D02*
X98351190Y-61406247D01*
X98351190Y-61406247D02*
X98827380Y-61501485D01*
X97541666Y-61787200D02*
X97636904Y-61834819D01*
X97636904Y-61834819D02*
X97827380Y-61834819D01*
X97827380Y-61834819D02*
X97922618Y-61787200D01*
X97922618Y-61787200D02*
X97970237Y-61691961D01*
X97970237Y-61691961D02*
X97970237Y-61311009D01*
X97970237Y-61311009D02*
X97922618Y-61215771D01*
X97922618Y-61215771D02*
X97827380Y-61168152D01*
X97827380Y-61168152D02*
X97636904Y-61168152D01*
X97636904Y-61168152D02*
X97541666Y-61215771D01*
X97541666Y-61215771D02*
X97494047Y-61311009D01*
X97494047Y-61311009D02*
X97494047Y-61406247D01*
X97494047Y-61406247D02*
X97970237Y-61501485D01*
X96636904Y-61834819D02*
X96636904Y-60834819D01*
X96636904Y-61787200D02*
X96732142Y-61834819D01*
X96732142Y-61834819D02*
X96922618Y-61834819D01*
X96922618Y-61834819D02*
X97017856Y-61787200D01*
X97017856Y-61787200D02*
X97065475Y-61739580D01*
X97065475Y-61739580D02*
X97113094Y-61644342D01*
X97113094Y-61644342D02*
X97113094Y-61358628D01*
X97113094Y-61358628D02*
X97065475Y-61263390D01*
X97065475Y-61263390D02*
X97017856Y-61215771D01*
X97017856Y-61215771D02*
X96922618Y-61168152D01*
X96922618Y-61168152D02*
X96732142Y-61168152D01*
X96732142Y-61168152D02*
X96636904Y-61215771D01*
X95446427Y-61787200D02*
X95303570Y-61834819D01*
X95303570Y-61834819D02*
X95065475Y-61834819D01*
X95065475Y-61834819D02*
X94970237Y-61787200D01*
X94970237Y-61787200D02*
X94922618Y-61739580D01*
X94922618Y-61739580D02*
X94874999Y-61644342D01*
X94874999Y-61644342D02*
X94874999Y-61549104D01*
X94874999Y-61549104D02*
X94922618Y-61453866D01*
X94922618Y-61453866D02*
X94970237Y-61406247D01*
X94970237Y-61406247D02*
X95065475Y-61358628D01*
X95065475Y-61358628D02*
X95255951Y-61311009D01*
X95255951Y-61311009D02*
X95351189Y-61263390D01*
X95351189Y-61263390D02*
X95398808Y-61215771D01*
X95398808Y-61215771D02*
X95446427Y-61120533D01*
X95446427Y-61120533D02*
X95446427Y-61025295D01*
X95446427Y-61025295D02*
X95398808Y-60930057D01*
X95398808Y-60930057D02*
X95351189Y-60882438D01*
X95351189Y-60882438D02*
X95255951Y-60834819D01*
X95255951Y-60834819D02*
X95017856Y-60834819D01*
X95017856Y-60834819D02*
X94874999Y-60882438D01*
X94589284Y-61168152D02*
X94208332Y-61168152D01*
X94446427Y-60834819D02*
X94446427Y-61691961D01*
X94446427Y-61691961D02*
X94398808Y-61787200D01*
X94398808Y-61787200D02*
X94303570Y-61834819D01*
X94303570Y-61834819D02*
X94208332Y-61834819D01*
X93446427Y-61168152D02*
X93446427Y-61834819D01*
X93874998Y-61168152D02*
X93874998Y-61691961D01*
X93874998Y-61691961D02*
X93827379Y-61787200D01*
X93827379Y-61787200D02*
X93732141Y-61834819D01*
X93732141Y-61834819D02*
X93589284Y-61834819D01*
X93589284Y-61834819D02*
X93494046Y-61787200D01*
X93494046Y-61787200D02*
X93446427Y-61739580D01*
X92541665Y-61834819D02*
X92541665Y-60834819D01*
X92541665Y-61787200D02*
X92636903Y-61834819D01*
X92636903Y-61834819D02*
X92827379Y-61834819D01*
X92827379Y-61834819D02*
X92922617Y-61787200D01*
X92922617Y-61787200D02*
X92970236Y-61739580D01*
X92970236Y-61739580D02*
X93017855Y-61644342D01*
X93017855Y-61644342D02*
X93017855Y-61358628D01*
X93017855Y-61358628D02*
X92970236Y-61263390D01*
X92970236Y-61263390D02*
X92922617Y-61215771D01*
X92922617Y-61215771D02*
X92827379Y-61168152D01*
X92827379Y-61168152D02*
X92636903Y-61168152D01*
X92636903Y-61168152D02*
X92541665Y-61215771D01*
X92065474Y-61834819D02*
X92065474Y-61168152D01*
X92065474Y-60834819D02*
X92113093Y-60882438D01*
X92113093Y-60882438D02*
X92065474Y-60930057D01*
X92065474Y-60930057D02*
X92017855Y-60882438D01*
X92017855Y-60882438D02*
X92065474Y-60834819D01*
X92065474Y-60834819D02*
X92065474Y-60930057D01*
X91446427Y-61834819D02*
X91541665Y-61787200D01*
X91541665Y-61787200D02*
X91589284Y-61739580D01*
X91589284Y-61739580D02*
X91636903Y-61644342D01*
X91636903Y-61644342D02*
X91636903Y-61358628D01*
X91636903Y-61358628D02*
X91589284Y-61263390D01*
X91589284Y-61263390D02*
X91541665Y-61215771D01*
X91541665Y-61215771D02*
X91446427Y-61168152D01*
X91446427Y-61168152D02*
X91303570Y-61168152D01*
X91303570Y-61168152D02*
X91208332Y-61215771D01*
X91208332Y-61215771D02*
X91160713Y-61263390D01*
X91160713Y-61263390D02*
X91113094Y-61358628D01*
X91113094Y-61358628D02*
X91113094Y-61644342D01*
X91113094Y-61644342D02*
X91160713Y-61739580D01*
X91160713Y-61739580D02*
X91208332Y-61787200D01*
X91208332Y-61787200D02*
X91303570Y-61834819D01*
X91303570Y-61834819D02*
X91446427Y-61834819D01*
X97398808Y-62834819D02*
X96732142Y-63834819D01*
X96732142Y-62834819D02*
X97398808Y-63834819D01*
X96351189Y-63834819D02*
X96351189Y-62834819D01*
X95922618Y-63549104D02*
X95446428Y-63549104D01*
X96017856Y-63834819D02*
X95684523Y-62834819D01*
X95684523Y-62834819D02*
X95351190Y-63834819D01*
X94827380Y-62834819D02*
X94636904Y-62834819D01*
X94636904Y-62834819D02*
X94541666Y-62882438D01*
X94541666Y-62882438D02*
X94446428Y-62977676D01*
X94446428Y-62977676D02*
X94398809Y-63168152D01*
X94398809Y-63168152D02*
X94398809Y-63501485D01*
X94398809Y-63501485D02*
X94446428Y-63691961D01*
X94446428Y-63691961D02*
X94541666Y-63787200D01*
X94541666Y-63787200D02*
X94636904Y-63834819D01*
X94636904Y-63834819D02*
X94827380Y-63834819D01*
X94827380Y-63834819D02*
X94922618Y-63787200D01*
X94922618Y-63787200D02*
X95017856Y-63691961D01*
X95017856Y-63691961D02*
X95065475Y-63501485D01*
X95065475Y-63501485D02*
X95065475Y-63168152D01*
X95065475Y-63168152D02*
X95017856Y-62977676D01*
X95017856Y-62977676D02*
X94922618Y-62882438D01*
X94922618Y-62882438D02*
X94827380Y-62834819D01*
%TO.C,U1*%
D13*
X86975000Y-71380000D02*
X86975000Y-54380000D01*
X88975000Y-52380910D02*
X102775000Y-52380910D01*
X91375000Y-50955970D02*
X91375000Y-58309270D01*
X91375000Y-58309270D02*
X100375000Y-58309270D01*
X100375000Y-50955970D02*
X91375000Y-50955970D01*
X100375000Y-58309270D02*
X100375000Y-50955970D01*
X102775000Y-73380000D02*
X88975000Y-73380000D01*
X104775000Y-54380000D02*
X104775000Y-71380000D01*
D14*
X86975000Y-54380000D02*
G75*
G02*
X88975000Y-52380000I2044610J-44610D01*
G01*
X88975000Y-73380000D02*
G75*
G02*
X86975000Y-71380000I0J2000000D01*
G01*
X102775000Y-52380000D02*
G75*
G02*
X104775000Y-54380000I-44612J-2044612D01*
G01*
X104775000Y-71380000D02*
G75*
G02*
X102775000Y-73380000I-2044857J44857D01*
G01*
D15*
X107002000Y-54080000D02*
G75*
G02*
X106748000Y-54080000I-127000J0D01*
G01*
X106748000Y-54080000D02*
G75*
G02*
X107002000Y-54080000I127000J0D01*
G01*
D16*
X104762715Y-54318295D02*
X104759667Y-54269527D01*
X104755603Y-54220506D01*
X104762715Y-54318295D01*
X86985508Y-71401574D02*
X86987287Y-71450850D01*
X86990335Y-71499618D01*
X86994399Y-71548639D01*
X86999732Y-71597407D01*
X87006336Y-71646175D01*
X87013956Y-71694690D01*
X87022847Y-71742950D01*
X87032752Y-71790955D01*
X86985508Y-71401574D01*
%TD*%
M02*
